# Blender v2.90.1 OBJ File: 'bench_split.blend'
# www.blender.org
o Cube_Cube.001
v -0.355611 0.000000 0.355611
v -0.500000 1.000000 0.500000
v -0.355611 0.000000 -0.355611
v -0.500000 1.000000 -0.500000
v 0.355611 0.000000 0.355611
v 0.500000 1.000000 0.500000
v 0.355611 0.000000 -0.355611
v 0.500000 1.000000 -0.500000
v -0.500000 1.200000 0.500000
v -0.500000 1.200000 -0.500000
v 0.500000 1.200000 -0.500000
v 0.500000 1.200000 0.500000
v -0.500000 1.000000 -2.500000
v 0.500000 1.000000 -2.500000
v -0.500000 1.200000 -2.500000
v 0.500000 1.200000 -2.500000
v -0.500000 1.000000 -3.500000
v 0.500000 1.000000 -3.500000
v -0.500000 1.200000 -3.500000
v 0.500000 1.200000 -3.500000
v -0.355611 0.000000 -2.644389
v 0.355611 0.000000 -2.644389
v -0.355611 0.000000 -3.355611
v 0.355611 0.000000 -3.355611
v -0.500000 1.000000 0.500000
v -0.500000 1.000000 -0.500000
v -0.500000 1.200000 0.500000
v -0.600952 1.700000 -0.500000
v -0.500000 1.000000 -2.500000
v -0.600952 1.676898 -2.500000
v -0.500000 1.000000 -3.500000
v -0.599969 1.676898 -3.500000
v -0.600000 1.000000 0.500000
v -0.600000 1.000000 -0.500000
v -0.600000 1.200000 0.500000
v -0.700952 1.700000 -0.500000
v -0.600000 1.000000 -2.500000
v -0.700952 1.676898 -2.500000
v -0.600000 1.000000 -3.500000
v -0.699969 1.676898 -3.500000
v -0.701903 2.200000 0.500000
v -0.701903 2.200000 -0.500000
v -0.701903 2.200000 -3.500000
v -0.701903 2.200000 -2.500000
v -0.801903 2.200000 0.500000
v -0.801903 2.200000 -0.500000
v -0.801903 2.200000 -3.500000
v -0.801903 2.200000 -2.500000
v -0.355611 0.000000 -0.355611
v -0.355611 0.000000 -0.355611
v -0.355611 0.000000 0.355611
v -0.355611 0.000000 0.355611
v -0.500000 1.000000 0.500000
v -0.500000 1.000000 0.500000
v -0.500000 1.000000 0.500000
v -0.500000 1.000000 0.500000
v -0.500000 1.000000 0.500000
v -0.500000 1.000000 0.500000
v -0.500000 1.000000 -0.500000
v -0.500000 1.000000 -0.500000
v -0.500000 1.000000 -0.500000
v -0.500000 1.000000 -0.500000
v -0.500000 1.000000 -0.500000
v -0.500000 1.000000 -0.500000
v -0.500000 1.000000 -0.500000
v -0.500000 1.000000 -0.500000
v 0.355611 0.000000 -0.355611
v 0.355611 0.000000 -0.355611
v 0.500000 1.000000 -0.500000
v 0.500000 1.000000 -0.500000
v 0.500000 1.000000 -0.500000
v 0.500000 1.000000 -0.500000
v 0.500000 1.000000 -0.500000
v 0.500000 1.000000 -0.500000
v 0.500000 1.000000 -0.500000
v 0.355611 0.000000 0.355611
v 0.355611 0.000000 0.355611
v 0.500000 1.000000 0.500000
v 0.500000 1.000000 0.500000
v 0.500000 1.000000 0.500000
v 0.500000 1.000000 0.500000
v 0.500000 1.000000 0.500000
v -0.500000 1.200000 0.500000
v -0.500000 1.200000 0.500000
v -0.500000 1.200000 0.500000
v -0.500000 1.200000 0.500000
v -0.500000 1.200000 0.500000
v -0.500000 1.200000 -0.500000
v -0.500000 1.200000 -0.500000
v -0.500000 1.200000 -0.500000
v -0.500000 1.200000 -0.500000
v -0.500000 1.200000 -0.500000
v -0.500000 1.200000 -0.500000
v -0.500000 1.200000 -0.500000
v 0.500000 1.200000 -0.500000
v 0.500000 1.200000 -0.500000
v 0.500000 1.200000 -0.500000
v 0.500000 1.200000 -0.500000
v 0.500000 1.200000 0.500000
v 0.500000 1.200000 0.500000
v 0.500000 1.200000 0.500000
v 0.500000 1.200000 0.500000
v -0.500000 1.000000 -2.500000
v -0.500000 1.000000 -2.500000
v -0.500000 1.000000 -2.500000
v -0.500000 1.000000 -2.500000
v -0.500000 1.000000 -2.500000
v -0.500000 1.000000 -2.500000
v -0.500000 1.000000 -2.500000
v -0.500000 1.000000 -2.500000
v 0.500000 1.000000 -2.500000
v 0.500000 1.000000 -2.500000
v 0.500000 1.000000 -2.500000
v 0.500000 1.000000 -2.500000
v 0.500000 1.000000 -2.500000
v 0.500000 1.000000 -2.500000
v 0.500000 1.000000 -2.500000
v -0.500000 1.200000 -2.500000
v -0.500000 1.200000 -2.500000
v -0.500000 1.200000 -2.500000
v -0.500000 1.200000 -2.500000
v -0.500000 1.200000 -2.500000
v -0.500000 1.200000 -2.500000
v 0.500000 1.200000 -2.500000
v 0.500000 1.200000 -2.500000
v 0.500000 1.200000 -2.500000
v 0.500000 1.200000 -2.500000
v 0.500000 1.200000 -2.500000
v -0.500000 1.000000 -3.500000
v -0.500000 1.000000 -3.500000
v -0.500000 1.000000 -3.500000
v -0.500000 1.000000 -3.500000
v -0.500000 1.000000 -3.500000
v -0.500000 1.000000 -3.500000
v -0.500000 1.000000 -3.500000
v 0.500000 1.000000 -3.500000
v 0.500000 1.000000 -3.500000
v 0.500000 1.000000 -3.500000
v 0.500000 1.000000 -3.500000
v -0.500000 1.200000 -3.500000
v -0.500000 1.200000 -3.500000
v -0.500000 1.200000 -3.500000
v -0.500000 1.200000 -3.500000
v -0.500000 1.200000 -3.500000
v 0.500000 1.200000 -3.500000
v 0.500000 1.200000 -3.500000
v 0.500000 1.200000 -3.500000
v 0.500000 1.200000 -3.500000
v -0.355611 0.000000 -2.644389
v -0.355611 0.000000 -2.644389
v 0.355611 0.000000 -2.644389
v 0.355611 0.000000 -2.644389
v -0.355611 0.000000 -3.355611
v -0.355611 0.000000 -3.355611
v 0.355611 0.000000 -3.355611
v 0.355611 0.000000 -3.355611
v -0.500000 1.000000 0.500000
v -0.500000 1.000000 0.500000
v -0.500000 1.000000 0.500000
v -0.500000 1.000000 0.500000
v -0.500000 1.000000 0.500000
v -0.500000 1.000000 -0.500000
v -0.500000 1.000000 -0.500000
v -0.500000 1.000000 -0.500000
v -0.500000 1.000000 -0.500000
v -0.500000 1.200000 0.500000
v -0.500000 1.200000 0.500000
v -0.500000 1.200000 0.500000
v -0.500000 1.200000 0.500000
v -0.500000 1.200000 0.500000
v -0.500000 1.200000 0.500000
v -0.600952 1.700000 -0.500000
v -0.600952 1.700000 -0.500000
v -0.600952 1.700000 -0.500000
v -0.600952 1.700000 -0.500000
v -0.600952 1.700000 -0.500000
v -0.600952 1.700000 -0.500000
v -0.600952 1.700000 -0.500000
v -0.600952 1.700000 -0.500000
v -0.600952 1.700000 -0.500000
v -0.500000 1.000000 -2.500000
v -0.500000 1.000000 -2.500000
v -0.500000 1.000000 -2.500000
v -0.500000 1.000000 -2.500000
v -0.500000 1.000000 -2.500000
v -0.600952 1.676898 -2.500000
v -0.600952 1.676898 -2.500000
v -0.600952 1.676898 -2.500000
v -0.600952 1.676898 -2.500000
v -0.600952 1.676898 -2.500000
v -0.600952 1.676898 -2.500000
v -0.600952 1.676898 -2.500000
v -0.600952 1.676898 -2.500000
v -0.600952 1.676898 -2.500000
v -0.600952 1.676898 -2.500000
v -0.500000 1.000000 -3.500000
v -0.500000 1.000000 -3.500000
v -0.500000 1.000000 -3.500000
v -0.500000 1.000000 -3.500000
v -0.599969 1.676898 -3.500000
v -0.599969 1.676898 -3.500000
v -0.599969 1.676898 -3.500000
v -0.599969 1.676898 -3.500000
v -0.599969 1.676898 -3.500000
v -0.599969 1.676898 -3.500000
v -0.600000 1.000000 0.500000
v -0.600000 1.000000 0.500000
v -0.600000 1.000000 0.500000
v -0.600000 1.000000 -0.500000
v -0.600000 1.000000 -0.500000
v -0.600000 1.000000 -0.500000
v -0.600000 1.000000 -0.500000
v -0.600000 1.000000 -0.500000
v -0.600000 1.200000 0.500000
v -0.600000 1.200000 0.500000
v -0.600000 1.200000 0.500000
v -0.600000 1.200000 0.500000
v -0.600000 1.200000 0.500000
v -0.700952 1.700000 -0.500000
v -0.700952 1.700000 -0.500000
v -0.700952 1.700000 -0.500000
v -0.700952 1.700000 -0.500000
v -0.700952 1.700000 -0.500000
v -0.700952 1.700000 -0.500000
v -0.700952 1.700000 -0.500000
v -0.600000 1.000000 -2.500000
v -0.600000 1.000000 -2.500000
v -0.600000 1.000000 -2.500000
v -0.600000 1.000000 -2.500000
v -0.700952 1.676898 -2.500000
v -0.700952 1.676898 -2.500000
v -0.700952 1.676898 -2.500000
v -0.700952 1.676898 -2.500000
v -0.700952 1.676898 -2.500000
v -0.700952 1.676898 -2.500000
v -0.700952 1.676898 -2.500000
v -0.600000 1.000000 -3.500000
v -0.600000 1.000000 -3.500000
v -0.600000 1.000000 -3.500000
v -0.600000 1.000000 -3.500000
v -0.699969 1.676898 -3.500000
v -0.699969 1.676898 -3.500000
v -0.699969 1.676898 -3.500000
v -0.699969 1.676898 -3.500000
v -0.699969 1.676898 -3.500000
v -0.701903 2.200000 0.500000
v -0.701903 2.200000 0.500000
v -0.701903 2.200000 0.500000
v -0.701903 2.200000 0.500000
v -0.701903 2.200000 -0.500000
v -0.701903 2.200000 -0.500000
v -0.701903 2.200000 -0.500000
v -0.701903 2.200000 -0.500000
v -0.701903 2.200000 -0.500000
v -0.701903 2.200000 -3.500000
v -0.701903 2.200000 -3.500000
v -0.701903 2.200000 -3.500000
v -0.701903 2.200000 -3.500000
v -0.701903 2.200000 -3.500000
v -0.701903 2.200000 -2.500000
v -0.701903 2.200000 -2.500000
v -0.701903 2.200000 -2.500000
v -0.701903 2.200000 -2.500000
v -0.701903 2.200000 -2.500000
v -0.701903 2.200000 -2.500000
v -0.801903 2.200000 0.500000
v -0.801903 2.200000 0.500000
v -0.801903 2.200000 0.500000
v -0.801903 2.200000 0.500000
v -0.801903 2.200000 -0.500000
v -0.801903 2.200000 -0.500000
v -0.801903 2.200000 -0.500000
v -0.801903 2.200000 -3.500000
v -0.801903 2.200000 -3.500000
v -0.801903 2.200000 -3.500000
v -0.801903 2.200000 -2.500000
v -0.801903 2.200000 -2.500000
v -0.801903 2.200000 -2.500000
v -0.801903 2.200000 -2.500000
v -0.801903 2.200000 -2.500000
v -0.801903 2.200000 -2.500000
v -0.801903 2.200000 -2.500000
vt 0.584961 0.936523
vt 0.584961 0.936523
vt 0.584961 0.936523
vt 0.584961 0.936523
vt 0.584961 0.936523
vt 0.584961 0.936523
vt 0.584961 0.936523
vt 0.584961 0.936523
vt 0.584961 0.936523
vt 0.584961 0.936523
vt 0.584961 0.936523
vt 0.584961 0.936523
vt 0.699219 0.417969
vt 0.699219 0.417969
vt 0.699219 0.417969
vt 0.699219 0.417969
vt 0.699219 0.417969
vt 0.699219 0.417969
vt 0.699219 0.417969
vt 0.699219 0.417969
vt 0.699219 0.417969
vt 0.699219 0.417969
vt 0.699219 0.417969
vt 0.699219 0.417969
vt 0.699219 0.417969
vt 0.699219 0.417969
vt 0.699219 0.417969
vt 0.699219 0.417969
vt 0.699219 0.417969
vt 0.699219 0.417969
vt 0.699219 0.417969
vt 0.699219 0.417969
vt 0.699219 0.417969
vt 0.699219 0.417969
vt 0.699219 0.417969
vt 0.699219 0.417969
vt 0.699219 0.417969
vt 0.699219 0.417969
vt 0.699219 0.417969
vt 0.699219 0.417969
vt 0.699219 0.417969
vt 0.699219 0.417969
vt 0.699219 0.417969
vt 0.699219 0.417969
vt 0.699219 0.417969
vt 0.699219 0.417969
vt 0.699219 0.417969
vt 0.699219 0.417969
vt 0.584961 0.936523
vt 0.584961 0.936523
vt 0.584961 0.936523
vt 0.584961 0.936523
vt 0.584961 0.936523
vt 0.584961 0.936523
vt 0.584961 0.936523
vt 0.584961 0.936523
vt 0.584961 0.936523
vt 0.584961 0.936523
vt 0.584961 0.936523
vt 0.584961 0.936523
vt 0.699219 0.417969
vt 0.699219 0.417969
vt 0.699219 0.417969
vt 0.699219 0.417969
vt 0.699219 0.417969
vt 0.699219 0.417969
vt 0.699219 0.417969
vt 0.699219 0.417969
vt 0.699219 0.417969
vt 0.699219 0.417969
vt 0.699219 0.417969
vt 0.699219 0.417969
vt 0.625000 1.000000
vt 0.625000 1.000000
vt 0.625000 1.000000
vt 0.699219 0.417969
vt 0.699219 0.417969
vt 0.699219 0.417969
vt 0.699219 0.417969
vt 0.699219 0.417969
vt 0.699219 0.417969
vt 0.699219 0.417969
vt 0.699219 0.417969
vt 0.699219 0.417969
vt 0.699219 0.417969
vt 0.699219 0.417969
vt 0.699219 0.417969
vt 0.699219 0.417969
vt 0.699219 0.417969
vt 0.699219 0.417969
vt 0.699219 0.417969
vt 0.699219 0.417969
vt 0.699219 0.417969
vt 0.699219 0.417969
vt 0.699219 0.417969
vt 0.699219 0.417969
vt 0.699219 0.417969
vt 0.699219 0.417969
vt 0.699219 0.417969
vt 0.699219 0.417969
vt 0.699219 0.417969
vt 0.699219 0.417969
vt 0.699219 0.417969
vt 0.699219 0.417969
vt 0.699219 0.417969
vt 0.699219 0.417969
vt 0.699219 0.417969
vt 0.699219 0.417969
vt 0.699219 0.417969
vt 0.699219 0.417969
vt 0.699219 0.417969
vt 0.699219 0.417969
vt 0.699219 0.417969
vt 0.699219 0.417969
vt 0.699219 0.417969
vt 0.699219 0.417969
vt 0.699219 0.417969
vt 0.699219 0.417969
vt 0.699219 0.417969
vt 0.699219 0.417969
vt 0.699219 0.417969
vt 0.699219 0.417969
vt 0.699219 0.417969
vt 0.699219 0.417969
vt 0.699219 0.417969
vt 0.699219 0.417969
vt 0.699219 0.417969
vt 0.699219 0.417969
vt 0.699219 0.417969
vt 0.699219 0.417969
vt 0.699219 0.417969
vt 0.699219 0.417969
vt 0.699219 0.417969
vt 0.699219 0.417969
vt 0.699219 0.417969
vt 0.699219 0.417969
vt 0.699219 0.417969
vt 0.699219 0.417969
vt 0.699219 0.417969
vt 0.699219 0.417969
vt 0.699219 0.417969
vt 0.584961 0.936523
vt 0.584961 0.936523
vt 0.584961 0.936523
vt 0.584961 0.936523
vt 0.584961 0.936523
vt 0.584961 0.936523
vt 0.584961 0.936523
vt 0.584961 0.936523
vt 0.584961 0.936523
vt 0.584961 0.936523
vt 0.584961 0.936523
vt 0.584961 0.936523
vt 0.699219 0.417969
vt 0.699219 0.417969
vt 0.699219 0.417969
vt 0.699219 0.417969
vt 0.699219 0.417969
vt 0.699219 0.417969
vt 0.699219 0.417969
vt 0.699219 0.417969
vt 0.699219 0.417969
vt 0.699219 0.417969
vt 0.699219 0.417969
vt 0.699219 0.417969
vt 0.699219 0.417969
vt 0.699219 0.417969
vt 0.699219 0.417969
vt 0.699219 0.417969
vt 0.699219 0.417969
vt 0.699219 0.417969
vt 0.699219 0.417969
vt 0.699219 0.417969
vt 0.699219 0.417969
vt 0.699219 0.417969
vt 0.699219 0.417969
vt 0.699219 0.417969
vt 0.699219 0.417969
vt 0.699219 0.417969
vt 0.699219 0.417969
vt 0.699219 0.417969
vt 0.699219 0.417969
vt 0.699219 0.417969
vt 0.699219 0.417969
vt 0.699219 0.417969
vt 0.699219 0.417969
vt 0.699219 0.417969
vt 0.699219 0.417969
vt 0.699219 0.417969
vt 0.584961 0.936523
vt 0.584961 0.936523
vt 0.584961 0.936523
vt 0.584961 0.936523
vt 0.584961 0.936523
vt 0.584961 0.936523
vt 0.584961 0.936523
vt 0.584961 0.936523
vt 0.584961 0.936523
vt 0.584961 0.936523
vt 0.584961 0.936523
vt 0.584961 0.936523
vt 0.699219 0.417969
vt 0.699219 0.417969
vt 0.699219 0.417969
vt 0.699219 0.417969
vt 0.699219 0.417969
vt 0.699219 0.417969
vt 0.699219 0.417969
vt 0.699219 0.417969
vt 0.699219 0.417969
vt 0.699219 0.417969
vt 0.699219 0.417969
vt 0.699219 0.417969
vt 0.625000 1.000000
vt 0.625000 1.000000
vt 0.625000 1.000000
vt 0.699219 0.417969
vt 0.699219 0.417969
vt 0.699219 0.417969
vt 0.699219 0.417969
vt 0.699219 0.417969
vt 0.699219 0.417969
vt 0.699219 0.417969
vt 0.699219 0.417969
vt 0.699219 0.417969
vt 0.699219 0.417969
vt 0.699219 0.417969
vt 0.699219 0.417969
vt 0.699219 0.417969
vt 0.699219 0.417969
vt 0.699219 0.417969
vt 0.699219 0.417969
vt 0.699219 0.417969
vt 0.699219 0.417969
vt 0.699219 0.417969
vt 0.699219 0.417969
vt 0.699219 0.417969
vt 0.699219 0.417969
vt 0.699219 0.417969
vt 0.699219 0.417969
vt 0.699219 0.417969
vt 0.699219 0.417969
vt 0.699219 0.417969
vt 0.699219 0.417969
vt 0.699219 0.417969
vt 0.699219 0.417969
vt 0.699219 0.417969
vt 0.699219 0.417969
vt 0.699219 0.417969
vt 0.699219 0.417969
vt 0.699219 0.417969
vt 0.699219 0.417969
vt 0.699219 0.417969
vt 0.699219 0.417969
vt 0.699219 0.417969
vt 0.699219 0.417969
vt 0.699219 0.417969
vt 0.699219 0.417969
vt 0.699219 0.417969
vt 0.699219 0.417969
vt 0.699219 0.417969
vt 0.699219 0.417969
vt 0.699219 0.417969
vt 0.699219 0.417969
vt 0.699219 0.417969
vt 0.699219 0.417969
vt 0.699219 0.417969
vt 0.699219 0.417969
vt 0.699219 0.417969
vt 0.699219 0.417969
vt 0.699219 0.417969
vt 0.699219 0.417969
vt 0.699219 0.417969
vt 0.699219 0.417969
vt 0.699219 0.417969
vt 0.699219 0.417969
vt 0.699219 0.417969
vt 0.699219 0.417969
vt 0.699219 0.417969
vt 0.699219 0.417969
vt 0.699219 0.417969
vt 0.699219 0.417969
vn -0.9897 -0.1429 0.0000
vn 0.0000 -0.1429 -0.9897
vn 0.9897 -0.1429 0.0000
vn 0.0000 -0.1429 0.9897
vn 0.0000 -1.0000 0.0000
vn 0.0000 1.0000 0.0000
vn 1.0000 0.0000 0.0000
vn 0.9783 0.2071 0.0010
vn 0.0000 0.0000 1.0000
vn -1.0000 0.0000 0.0000
vn 0.0000 0.0000 -1.0000
vn -0.9894 -0.1427 0.0285
vn -0.9893 -0.1461 0.0000
vn 0.0000 -0.9999 0.0116
vn 0.9802 0.1979 0.0000
vn 0.9819 0.1895 0.0000
vn -0.9802 -0.1979 0.0000
vn -0.9815 -0.1913 -0.0010
vn -0.9819 -0.1895 0.0022
vn 0.9787 0.2052 0.0000
vn -0.9891 -0.1475 -0.0010
vn 0.9815 0.1913 0.0010
vn -0.9819 -0.1895 0.0000
vn 0.9819 0.1895 -0.0022
s off
f 53/1/1 49/2/1 51/3/1
f 65/4/2 67/5/2 3/6/2
f 74/7/3 76/8/3 7/9/3
f 82/10/4 52/11/4 5/12/4
f 66/13/5 113/14/5 72/15/5
f 89/16/6 99/17/6 95/18/6
f 75/19/7 101/20/7 80/21/7
f 121/22/8 201/23/8 187/24/8
f 6/25/9 84/26/9 56/27/9
f 112/28/7 147/29/7 125/30/7
f 90/31/10 109/32/10 61/33/10
f 8/34/7 126/35/7 97/36/7
f 11/37/6 122/38/6 10/39/6
f 129/40/11 20/41/11 136/42/11
f 16/43/6 144/44/6 15/45/6
f 92/46/11 163/47/11 173/48/11
f 14/49/3 24/50/3 138/51/3
f 18/52/2 23/53/2 132/54/2
f 131/55/1 21/56/1 105/57/1
f 110/58/4 22/59/4 117/60/4
f 203/61/11 237/62/11 241/63/11
f 182/64/5 240/65/5 197/66/5
f 85/67/9 172/68/9 166/69/9
f 19/70/11 31/71/11 205/72/11
f 57/73/9 167/74/9 158/75/9
f 17/76/9 185/77/9 199/78/9
f 4/79/9 157/80/9 162/81/9
f 13/82/9 186/83/9 181/84/9
f 210/85/12 214/86/12 219/87/12
f 37/88/13 245/89/13 39/90/13
f 171/91/9 207/92/9 159/93/9
f 217/94/9 247/95/9 267/96/9
f 220/97/14 190/98/14 174/99/14
f 195/100/9 229/101/9 29/102/9
f 180/103/11 34/104/11 225/105/11
f 25/106/5 213/107/5 26/108/5
f 250/109/6 45/110/6 246/111/6
f 255/112/6 48/113/6 260/114/6
f 179/115/15 41/116/15 27/117/15
f 38/118/11 277/119/11 261/120/11
f 189/121/16 259/122/16 262/123/16
f 221/124/17 269/125/17 271/126/17
f 244/127/11 43/128/11 32/129/11
f 236/130/18 47/131/18 40/132/18
f 36/133/19 281/134/19 235/135/19
f 42/136/6 282/137/6 46/138/6
f 28/139/15 44/140/15 254/141/15
f 54/142/1 59/143/1 50/144/1
f 60/145/2 69/146/2 68/147/2
f 70/148/3 78/149/3 77/150/3
f 79/151/4 55/152/4 1/153/4
f 62/154/5 103/155/5 111/156/5
f 88/157/6 83/158/6 100/159/6
f 71/160/7 96/161/7 102/162/7
f 120/163/20 141/164/20 202/165/20
f 81/166/9 12/167/9 86/168/9
f 114/169/7 137/170/7 146/171/7
f 91/172/10 119/173/10 104/174/10
f 73/175/7 116/176/7 127/177/7
f 98/178/6 124/179/6 118/180/6
f 130/181/11 140/182/11 145/183/11
f 128/184/6 148/185/6 142/186/6
f 93/187/9 63/188/9 164/189/9
f 115/190/3 152/191/3 156/192/3
f 139/193/2 155/194/2 153/195/2
f 134/196/1 154/197/1 150/198/1
f 107/199/4 149/200/4 151/201/4
f 200/202/11 196/203/11 239/204/11
f 184/205/5 227/206/5 238/207/5
f 87/208/15 94/209/15 176/210/15
f 143/211/9 133/212/9 198/213/9
f 58/214/9 9/215/9 170/216/9
f 135/217/9 106/218/9 183/219/9
f 64/220/9 2/221/9 160/222/9
f 108/223/9 123/224/9 191/225/9
f 209/226/10 206/227/10 215/228/10
f 226/229/21 230/230/21 242/231/21
f 168/232/9 216/233/9 208/234/9
f 218/235/9 169/236/9 248/237/9
f 222/238/14 233/239/14 192/240/14
f 188/241/9 231/242/9 228/243/9
f 177/244/11 165/245/11 211/246/11
f 161/247/5 33/248/5 212/249/5
f 251/250/6 270/251/6 266/252/6
f 256/253/6 273/254/6 276/255/6
f 175/256/15 252/257/15 249/258/15
f 234/259/11 264/260/11 30/261/11
f 193/262/22 204/263/22 257/264/22
f 223/265/17 35/266/17 268/267/17
f 243/268/11 274/269/11 258/270/11
f 232/271/23 278/272/23 275/273/23
f 224/274/17 272/275/17 279/276/17
f 253/277/6 263/278/6 280/279/6
f 178/280/24 194/281/24 265/282/24
