# Blender v2.90.1 OBJ File: ''
# www.blender.org
mtllib cube.mtl
o Cube
v 0.500000 0.500000 -0.500000
v 0.500000 -0.500000 -0.500000
v 0.500000 0.500000 0.500000
v 0.500000 -0.500000 0.500000
v -0.500000 0.500000 -0.500000
v -0.500000 -0.500000 -0.500000
v -0.500000 0.500000 0.500000
v -0.500000 -0.500000 0.500000
v -0.500000 -0.500000 -0.500000
v -0.500000 -0.500000 -0.500000
v -0.500000 -0.500000 -0.500000
v -0.500000 -0.500000 0.500000
v -0.500000 -0.500000 0.500000
v -0.500000 -0.500000 0.500000
v -0.500000 -0.500000 0.500000
v 0.500000 -0.500000 -0.500000
v 0.500000 -0.500000 -0.500000
v 0.500000 -0.500000 -0.500000
v 0.500000 -0.500000 -0.500000
v 0.500000 0.500000 -0.500000
v 0.500000 0.500000 -0.500000
v 0.500000 0.500000 -0.500000
v -0.500000 0.500000 0.500000
v -0.500000 0.500000 0.500000
v -0.500000 0.500000 0.500000
v 0.500000 0.500000 0.500000
v 0.500000 0.500000 0.500000
v 0.500000 0.500000 0.500000
v 0.500000 0.500000 0.500000
v 0.500000 -0.500000 0.500000
v 0.500000 -0.500000 0.500000
v 0.500000 -0.500000 0.500000
v -0.500000 0.500000 -0.500000
v -0.500000 0.500000 -0.500000
v -0.500000 0.500000 -0.500000
v -0.500000 0.500000 -0.500000
vt 0.061330 0.937285
vt 0.061330 0.937285
vt 0.061330 0.937285
vt 0.061330 0.937285
vt 0.061330 0.937285
vt 0.061330 0.937285
vt 0.061330 0.937285
vt 0.061330 0.937285
vt 0.061330 0.937285
vt 0.061330 0.937285
vt 0.061330 0.937285
vt 0.061330 0.937285
vt 0.061330 0.937285
vt 0.061330 0.937285
vt 0.061330 0.937285
vt 0.061330 0.937285
vt 0.061330 0.937285
vt 0.061330 0.937285
vt 0.061330 0.937285
vt 0.061330 0.937285
vt 0.061330 0.937285
vt 0.061330 0.937285
vt 0.061330 0.937285
vt 0.061330 0.937285
vt 0.061330 0.937285
vt 0.061330 0.937285
vt 0.061330 0.937285
vt 0.061330 0.937285
vt 0.061330 0.937285
vt 0.061330 0.937285
vt 0.061330 0.937285
vt 0.061330 0.937285
vt 0.061330 0.937285
vt 0.061330 0.937285
vt 0.061330 0.937285
vt 0.061330 0.937285
vn 0.0000 1.0000 0.0000
vn 0.0000 0.0000 1.0000
vn -1.0000 0.0000 0.0000
vn 0.0000 -1.0000 0.0000
vn 1.0000 0.0000 0.0000
vn 0.0000 0.0000 -1.0000
usemtl Material
s off
f 35/1/1 28/2/1 21/3/1
f 26/4/2 14/5/2 30/6/2
f 7/7/3 9/8/3 12/9/3
f 16/10/4 8/11/4 10/12/4
f 20/13/5 4/14/5 17/15/5
f 5/16/6 2/17/6 6/18/6
f 34/19/1 24/20/1 27/21/1
f 29/22/2 23/23/2 13/24/2
f 25/25/3 33/26/3 11/27/3
f 18/28/4 31/29/4 15/30/4
f 22/31/5 3/32/5 32/33/5
f 36/34/6 1/35/6 19/36/6
