# Blender v2.90.1 OBJ File: 'foundation.blend'
# www.blender.org
o Cube_Cube.001
v -5.000000 0.500000 5.000000
v -5.000000 0.500000 -5.000000
v 5.000000 0.500000 5.000000
v 5.000000 0.500000 -5.000000
v -5.000000 0.000000 -5.000000
v -5.000000 0.000000 -5.000000
v -5.000000 0.000000 -5.000000
v -5.000000 0.000000 5.000000
v -5.000000 0.000000 5.000000
v -5.000000 0.000000 5.000000
v -5.000000 0.500000 5.000000
v -5.000000 0.500000 5.000000
v -5.000000 0.500000 5.000000
v -5.000000 0.500000 -5.000000
v -5.000000 0.500000 -5.000000
v -5.000000 0.500000 -5.000000
v -5.000000 0.500000 -5.000000
v 5.000000 0.000000 -5.000000
v 5.000000 0.000000 -5.000000
v 5.000000 0.000000 -5.000000
v 5.000000 0.500000 -5.000000
v 5.000000 0.500000 -5.000000
v 5.000000 0.500000 -5.000000
v 5.000000 0.000000 5.000000
v 5.000000 0.000000 5.000000
v 5.000000 0.000000 5.000000
v 5.000000 0.500000 5.000000
v 5.000000 0.500000 5.000000
v 5.000000 0.500000 5.000000
v 5.000000 0.500000 5.000000
vt 0.594000 0.941000
vt 0.594000 0.941000
vt 0.594000 0.941000
vt 0.594000 0.941000
vt 0.594000 0.941000
vt 0.594000 0.941000
vt 0.594000 0.941000
vt 0.594000 0.941000
vt 0.594000 0.941000
vt 0.594000 0.941000
vt 0.594000 0.941000
vt 0.594000 0.941000
vt 0.594000 0.941000
vt 0.594000 0.941000
vt 0.594000 0.941000
vt 0.594000 0.941000
vt 0.594000 0.941000
vt 0.594000 0.941000
vt 0.594000 0.941000
vt 0.594000 0.941000
vt 0.594000 0.941000
vt 0.594000 0.941000
vt 0.594000 0.941000
vt 0.594000 0.941000
vt 0.594000 0.941000
vt 0.594000 0.941000
vt 0.594000 0.941000
vt 0.594000 0.941000
vt 0.594000 0.941000
vt 0.594000 0.941000
vn -1.0000 0.0000 0.0000
vn 0.0000 0.0000 -1.0000
vn 1.0000 0.0000 0.0000
vn 0.0000 0.0000 1.0000
vn 0.0000 1.0000 0.0000
s off
f 11/1/1 5/2/1 8/3/1
f 17/4/2 18/5/2 7/6/2
f 4/7/3 24/8/3 20/9/3
f 30/10/4 9/11/4 26/12/4
f 2/13/5 3/14/5 23/15/5
f 12/16/1 14/17/1 6/18/1
f 15/19/2 21/20/2 19/21/2
f 22/22/3 27/23/3 25/24/3
f 28/25/4 13/26/4 10/27/4
f 16/28/5 1/29/5 29/30/5
