# Blender v2.90.1 OBJ File: 'blind_alley_split.blend'
# www.blender.org
mtllib blind_alley.mtl
o Cube.001_Cube
v -4.999999 0.156774 5.121704
v -4.999999 -0.140066 5.121704
v -4.999999 0.156774 -4.878296
v -4.999999 -0.140066 -4.878296
v 5.000001 0.156774 5.121704
v 5.000001 -0.140066 5.121704
v 5.000001 0.156774 -4.878296
v 5.000001 -0.140066 -4.878296
v 3.263334 0.156774 -4.878296
v -3.263332 0.156774 -4.878296
v -3.263332 -0.140066 -4.878296
v 3.263334 -0.140066 -4.878296
v -3.263332 0.156774 5.121704
v 3.263334 0.156774 5.121704
v -4.999999 0.156774 -3.141629
v -4.999999 -0.140066 -3.141629
v 5.000001 0.156774 -3.141629
v 5.000001 -0.140066 -3.141629
v -3.263332 0.156774 -3.141629
v 3.263334 0.156774 -3.141629
v -4.999999 0.392934 5.121704
v -3.263332 0.392934 -4.878296
v -4.999999 0.392934 -4.878296
v 5.000001 0.392934 -3.141629
v 5.000001 0.392934 -4.878296
v 3.263334 0.392934 5.121704
v 5.000001 0.392934 5.121704
v 3.263334 0.392934 -4.878296
v -3.263332 0.392934 5.121704
v -4.999999 0.392934 -3.141629
v -3.263332 0.392934 -3.141629
v 3.263334 0.392934 -3.141629
v -3.263332 0.156774 -0.387184
v -3.263332 0.156774 2.367260
v 5.000001 0.392934 2.367260
v 5.000001 0.392934 -0.387185
v -3.263332 0.392934 -0.387184
v -3.263332 0.392934 2.367260
v -4.999999 0.392934 -0.387184
v -4.999999 0.392934 2.367260
v 5.000001 0.156774 2.367260
v 5.000001 0.156774 -0.387185
v 3.263334 0.392934 -0.387184
v 3.263334 0.392934 2.367260
v -4.999999 -0.140066 2.367260
v -4.999999 -0.140066 -0.387185
v -4.999999 0.156774 -0.387184
v -4.999999 0.156774 2.367260
v 5.000001 -0.140066 -0.387184
v 5.000001 -0.140066 2.367260
v 3.263334 0.156774 -0.387184
v 3.263334 0.156774 2.367260
v -0.341308 0.156774 4.775100
v -0.341308 0.156774 2.713864
v 0.341311 0.156774 2.713864
v 0.341311 0.156774 4.775100
v -0.341308 0.156774 2.020656
v -0.341308 0.156774 -0.040580
v 0.341311 0.156774 -0.040580
v 0.341311 0.156774 2.020656
v -4.999999 0.156774 5.121704
v -4.999999 -0.140066 5.121704
v -4.999999 -0.140066 -3.141629
v -4.999999 -0.140066 -3.141629
v -4.999999 -0.140066 -4.878296
v -4.999999 -0.140066 -4.878296
v -4.999999 0.156774 -4.878296
v -4.999999 0.156774 -4.878296
v -4.999999 0.156774 -4.878296
v -4.999999 0.156774 -4.878296
v -4.999999 0.156774 -4.878296
v -3.263332 0.156774 -4.878296
v -3.263332 0.156774 -4.878296
v -3.263332 0.156774 -4.878296
v -3.263332 0.156774 -4.878296
v -3.263332 0.156774 -4.878296
v 3.263334 -0.140066 -4.878296
v 3.263334 -0.140066 -4.878296
v 5.000001 -0.140066 -4.878296
v 5.000001 -0.140066 -4.878296
v 5.000001 0.156774 -4.878296
v 5.000001 0.156774 -4.878296
v 5.000001 0.156774 -4.878296
v 5.000001 0.156774 -4.878296
v 5.000001 0.156774 -4.878296
v 5.000001 0.156774 -3.141629
v 5.000001 0.156774 -3.141629
v 5.000001 0.156774 -3.141629
v 5.000001 0.156774 -3.141629
v 5.000001 0.156774 -3.141629
v 5.000001 0.156774 5.121704
v 5.000001 0.156774 5.121704
v 5.000001 0.156774 5.121704
v 3.263334 0.156774 -4.878296
v 3.263334 0.156774 -4.878296
v 3.263334 0.156774 -4.878296
v 3.263334 0.156774 -4.878296
v 3.263334 0.156774 -4.878296
v -3.263332 -0.140066 -4.878296
v -3.263332 -0.140066 -4.878296
v -3.263332 0.156774 2.367260
v -3.263332 0.156774 2.367260
v -3.263332 0.156774 2.367260
v -3.263332 0.156774 2.367260
v -3.263332 0.156774 2.367260
v -3.263332 0.156774 2.367260
v -3.263332 0.156774 2.367260
v -3.263332 0.156774 5.121704
v -3.263332 0.156774 5.121704
v -3.263332 0.156774 5.121704
v -3.263332 0.156774 5.121704
v -3.263332 0.156774 5.121704
v -4.999999 0.156774 -3.141629
v -4.999999 0.156774 -3.141629
v -4.999999 0.156774 -3.141629
v -4.999999 0.156774 -3.141629
v -4.999999 0.156774 -3.141629
v 5.000001 0.392934 -0.387185
v 5.000001 0.392934 -0.387185
v 5.000001 0.392934 -0.387185
v 5.000001 0.392934 -0.387185
v 5.000001 0.392934 -0.387185
v 5.000001 0.392934 -3.141629
v 5.000001 0.392934 -3.141629
v 5.000001 0.392934 -3.141629
v 5.000001 0.392934 -3.141629
v 5.000001 0.392934 -3.141629
v 5.000001 -0.140066 -3.141629
v 5.000001 -0.140066 -3.141629
v -3.263332 0.392934 -3.141629
v -3.263332 0.392934 -3.141629
v -3.263332 0.392934 -3.141629
v -3.263332 0.392934 -3.141629
v -3.263332 0.392934 -3.141629
v -3.263332 0.392934 -3.141629
v -3.263332 0.392934 -3.141629
v -3.263332 0.156774 -3.141629
v -3.263332 0.156774 -3.141629
v -3.263332 0.156774 -3.141629
v -3.263332 0.156774 -3.141629
v -3.263332 0.392934 5.121704
v -4.999999 0.392934 5.121704
v -4.999999 0.392934 5.121704
v -4.999999 0.392934 5.121704
v -3.263332 0.392934 2.367260
v -3.263332 0.392934 2.367260
v -3.263332 0.392934 2.367260
v -3.263332 0.392934 2.367260
v -3.263332 0.392934 2.367260
v 3.263334 0.156774 -3.141629
v 3.263334 0.156774 -3.141629
v 3.263334 0.156774 -3.141629
v 3.263334 0.156774 5.121704
v 3.263334 0.156774 5.121704
v 3.263334 0.156774 5.121704
v 3.263334 0.392934 5.121704
v 3.263334 0.392934 5.121704
v 5.000001 0.392934 5.121704
v 5.000001 0.392934 5.121704
v -3.263332 0.392934 -4.878296
v -3.263332 0.392934 -4.878296
v -3.263332 0.392934 -4.878296
v -3.263332 0.392934 -4.878296
v -3.263332 0.392934 -4.878296
v -4.999999 0.392934 -4.878296
v -4.999999 0.392934 -4.878296
v -4.999999 0.392934 -4.878296
v 5.000001 0.392934 -4.878296
v 5.000001 0.392934 -4.878296
v 5.000001 0.392934 -4.878296
v 5.000001 0.392934 -4.878296
v 3.263334 0.392934 -4.878296
v 3.263334 0.392934 -4.878296
v 3.263334 0.392934 -4.878296
v 3.263334 0.392934 -4.878296
v 3.263334 0.392934 -4.878296
v -4.999999 0.392934 -3.141629
v -4.999999 0.392934 -3.141629
v -4.999999 0.392934 -3.141629
v -4.999999 0.392934 -3.141629
v -4.999999 0.392934 -3.141629
v -4.999999 0.392934 2.367260
v -4.999999 0.392934 2.367260
v -4.999999 0.392934 2.367260
v -4.999999 0.392934 2.367260
v -4.999999 0.392934 2.367260
v 3.263334 0.392934 -3.141629
v 3.263334 0.392934 -3.141629
v 3.263334 0.392934 -3.141629
v 3.263334 0.392934 -3.141629
v 3.263334 0.392934 -3.141629
v 3.263334 0.392934 -3.141629
v 5.000001 0.156774 -0.387185
v 5.000001 0.156774 -0.387185
v 5.000001 0.156774 -0.387185
v 5.000001 0.156774 -0.387185
v 5.000001 0.156774 -0.387185
v 3.263334 0.392934 2.367260
v 3.263334 0.392934 2.367260
v 3.263334 0.392934 2.367260
v 3.263334 0.392934 2.367260
v 3.263334 0.392934 2.367260
v 3.263334 0.392934 2.367260
v -4.999999 -0.140066 -0.387185
v -4.999999 -0.140066 -0.387185
v -4.999999 0.156774 2.367260
v -4.999999 0.156774 2.367260
v -4.999999 0.156774 2.367260
v -4.999999 0.156774 2.367260
v -4.999999 0.156774 2.367260
v 5.000001 -0.140066 2.367260
v 5.000001 -0.140066 2.367260
v 3.263334 0.156774 2.367260
v 3.263334 0.156774 2.367260
v 3.263334 0.156774 2.367260
v 3.263334 0.156774 2.367260
v 3.263334 0.156774 2.367260
v 3.263334 0.156774 2.367260
v 3.263334 0.156774 2.367260
v 3.263334 0.156774 2.367260
v -0.341308 0.156774 4.775100
v -0.341308 0.156774 4.775100
v 0.341311 0.156774 4.775100
v 0.341311 0.156774 4.775100
v 0.341311 0.156774 4.775100
v 0.341311 0.156774 4.775100
v -3.263332 0.156774 -0.387184
v -3.263332 0.156774 -0.387184
v -3.263332 0.156774 -0.387184
v -3.263332 0.156774 -0.387184
v -3.263332 0.156774 -0.387184
v -3.263332 0.156774 -0.387184
v 5.000001 0.392934 2.367260
v 5.000001 0.392934 2.367260
v 5.000001 0.392934 2.367260
v 5.000001 0.392934 2.367260
v -3.263332 0.392934 -0.387184
v -3.263332 0.392934 -0.387184
v -3.263332 0.392934 -0.387184
v -3.263332 0.392934 -0.387184
v -3.263332 0.392934 -0.387184
v -4.999999 0.392934 -0.387184
v -4.999999 0.392934 -0.387184
v -4.999999 0.392934 -0.387184
v -4.999999 0.392934 -0.387184
v -4.999999 0.392934 -0.387184
v 5.000001 0.156774 2.367260
v 5.000001 0.156774 2.367260
v 5.000001 0.156774 2.367260
v 5.000001 0.156774 2.367260
v 5.000001 0.156774 2.367260
v 3.263334 0.392934 -0.387184
v 3.263334 0.392934 -0.387184
v 3.263334 0.392934 -0.387184
v 3.263334 0.392934 -0.387184
v 3.263334 0.392934 -0.387184
v -4.999999 -0.140066 2.367260
v -4.999999 -0.140066 2.367260
v -4.999999 0.156774 -0.387184
v -4.999999 0.156774 -0.387184
v -4.999999 0.156774 -0.387184
v -4.999999 0.156774 -0.387184
v -4.999999 0.156774 -0.387184
v 5.000001 -0.140066 -0.387184
v 5.000001 -0.140066 -0.387184
v 3.263334 0.156774 -0.387184
v 3.263334 0.156774 -0.387184
v 3.263334 0.156774 -0.387184
v 3.263334 0.156774 -0.387184
v 3.263334 0.156774 -0.387184
v 3.263334 0.156774 -0.387184
v 3.263334 0.156774 -0.387184
v -0.341308 0.156774 2.713864
v -0.341308 0.156774 2.713864
v -0.341308 0.156774 2.713864
v -0.341308 0.156774 2.713864
v -0.341308 0.156774 2.713864
v 0.341311 0.156774 2.713864
v 0.341311 0.156774 2.713864
v 0.341311 0.156774 2.713864
v -0.341308 0.156774 -0.040580
v -0.341308 0.156774 -0.040580
v -0.341308 0.156774 -0.040580
v -0.341308 0.156774 -0.040580
v -0.341308 0.156774 2.020656
v -0.341308 0.156774 2.020656
v -0.341308 0.156774 2.020656
v 0.341311 0.156774 2.020656
v 0.341311 0.156774 2.020656
v 0.341311 0.156774 2.020656
v 0.341311 0.156774 2.020656
v 0.341311 0.156774 -0.040580
v 0.341311 0.156774 -0.040580
v 0.341311 0.156774 -0.040580
vt 0.658000 0.936000
vt 0.658000 0.936000
vt 0.658000 0.936000
vt 0.658000 0.936000
vt 0.658000 0.936000
vt 0.658000 0.936000
vt 0.591999 0.941001
vt 0.591999 0.941001
vt 0.591999 0.941001
vt 0.591999 0.941001
vt 0.591999 0.941001
vt 0.591999 0.941001
vt 0.658000 0.936000
vt 0.658000 0.936000
vt 0.658000 0.936000
vt 0.658000 0.936000
vt 0.658000 0.936000
vt 0.658000 0.936000
vt 0.591999 0.941001
vt 0.591999 0.941001
vt 0.591999 0.941001
vt 0.591999 0.941001
vt 0.591999 0.941001
vt 0.591999 0.941001
vt 0.591999 0.941001
vt 0.591999 0.941001
vt 0.591999 0.941001
vt 0.658000 0.936000
vt 0.658000 0.936000
vt 0.658000 0.936000
vt 0.658000 0.936000
vt 0.658000 0.936000
vt 0.658000 0.936000
vt 0.658000 0.936000
vt 0.658000 0.936000
vt 0.658000 0.936000
vt 0.591999 0.941001
vt 0.591999 0.941001
vt 0.591999 0.941001
vt 0.591999 0.941001
vt 0.591999 0.941001
vt 0.591999 0.941001
vt 0.591999 0.941001
vt 0.591999 0.941001
vt 0.591999 0.941001
vt 0.591999 0.941001
vt 0.591999 0.941001
vt 0.591999 0.941001
vt 0.591999 0.941001
vt 0.591999 0.941001
vt 0.591999 0.941001
vt 0.591999 0.941001
vt 0.591999 0.941001
vt 0.591999 0.941001
vt 0.591999 0.941001
vt 0.591999 0.941001
vt 0.591999 0.941001
vt 0.591999 0.941001
vt 0.591999 0.941001
vt 0.591999 0.941001
vt 0.591999 0.941001
vt 0.591999 0.941001
vt 0.591999 0.941001
vt 0.591999 0.941001
vt 0.591999 0.941001
vt 0.591999 0.941001
vt 0.658000 0.936000
vt 0.658000 0.936000
vt 0.658000 0.936000
vt 0.083984 0.931640
vt 0.083984 0.931641
vt 0.083984 0.931641
vt 0.083984 0.931640
vt 0.083984 0.931640
vt 0.083984 0.931641
vt 0.591999 0.941001
vt 0.591999 0.941001
vt 0.591999 0.941001
vt 0.591999 0.941001
vt 0.591999 0.941001
vt 0.591999 0.941001
vt 0.591999 0.941001
vt 0.591999 0.941001
vt 0.591999 0.941001
vt 0.591999 0.941001
vt 0.591999 0.941001
vt 0.591999 0.941001
vt 0.591999 0.941001
vt 0.591999 0.941001
vt 0.591999 0.941001
vt 0.591999 0.941001
vt 0.591999 0.941001
vt 0.591999 0.941001
vt 0.591999 0.941001
vt 0.591999 0.941001
vt 0.591999 0.941001
vt 0.591999 0.941001
vt 0.591999 0.941001
vt 0.591999 0.941001
vt 0.658000 0.936000
vt 0.658000 0.936000
vt 0.658000 0.936000
vt 0.658000 0.936000
vt 0.658000 0.936000
vt 0.658000 0.936000
vt 0.658000 0.936000
vt 0.658000 0.936000
vt 0.658000 0.936000
vt 0.658000 0.936000
vt 0.658000 0.936000
vt 0.658000 0.936000
vt 0.591999 0.941001
vt 0.591999 0.941001
vt 0.591999 0.941001
vt 0.591999 0.941001
vt 0.591999 0.941001
vt 0.591999 0.941001
vt 0.591999 0.941001
vt 0.591999 0.941001
vt 0.591999 0.941001
vt 0.591999 0.941001
vt 0.591999 0.941001
vt 0.591999 0.941001
vt 0.658000 0.936000
vt 0.658000 0.936000
vt 0.658000 0.936000
vt 0.658000 0.936000
vt 0.658000 0.936000
vt 0.658000 0.936000
vt 0.658000 0.936000
vt 0.658000 0.936000
vt 0.658000 0.936000
vt 0.658000 0.936000
vt 0.658000 0.936000
vt 0.658000 0.936000
vt 0.658000 0.936000
vt 0.658000 0.936000
vt 0.658000 0.936000
vt 0.658000 0.936000
vt 0.658000 0.936000
vt 0.658000 0.936000
vt 0.658000 0.936000
vt 0.658000 0.936000
vt 0.658000 0.936000
vt 0.658000 0.936000
vt 0.658000 0.936000
vt 0.658000 0.936000
vt 0.658000 0.936000
vt 0.658000 0.936000
vt 0.658000 0.936000
vt 0.658000 0.936000
vt 0.658000 0.936000
vt 0.658000 0.936000
vt 0.591999 0.941001
vt 0.591999 0.941001
vt 0.591999 0.941001
vt 0.591999 0.941001
vt 0.591999 0.941001
vt 0.591999 0.941001
vt 0.658000 0.936000
vt 0.658000 0.936000
vt 0.658000 0.936000
vt 0.658000 0.936000
vt 0.658000 0.936000
vt 0.658000 0.936000
vt 0.591999 0.941001
vt 0.591999 0.941001
vt 0.591999 0.941001
vt 0.591999 0.941001
vt 0.591999 0.941001
vt 0.591999 0.941001
vt 0.591999 0.941001
vt 0.591999 0.941001
vt 0.591999 0.941001
vt 0.658000 0.936000
vt 0.658000 0.936000
vt 0.658000 0.936000
vt 0.658000 0.936000
vt 0.658000 0.936000
vt 0.658000 0.936000
vt 0.658000 0.936000
vt 0.658000 0.936000
vt 0.658000 0.936000
vt 0.591999 0.941001
vt 0.591999 0.941001
vt 0.591999 0.941001
vt 0.591999 0.941001
vt 0.591999 0.941001
vt 0.591999 0.941001
vt 0.591999 0.941001
vt 0.591999 0.941001
vt 0.591999 0.941001
vt 0.591999 0.941001
vt 0.591999 0.941001
vt 0.591999 0.941001
vt 0.591999 0.941001
vt 0.591999 0.941001
vt 0.591999 0.941001
vt 0.591999 0.941001
vt 0.591999 0.941001
vt 0.591999 0.941001
vt 0.591999 0.941001
vt 0.591999 0.941001
vt 0.591999 0.941001
vt 0.591999 0.941001
vt 0.591999 0.941001
vt 0.591999 0.941001
vt 0.591999 0.941001
vt 0.591999 0.941001
vt 0.591999 0.941001
vt 0.591999 0.941001
vt 0.591999 0.941001
vt 0.591999 0.941001
vt 0.658000 0.936000
vt 0.658000 0.936000
vt 0.658000 0.936000
vt 0.083984 0.931640
vt 0.083984 0.931641
vt 0.083984 0.931641
vt 0.083984 0.931640
vt 0.083984 0.931641
vt 0.083984 0.931641
vt 0.591999 0.941001
vt 0.591999 0.941001
vt 0.591999 0.941001
vt 0.591999 0.941001
vt 0.591999 0.941001
vt 0.591999 0.941001
vt 0.591999 0.941001
vt 0.591999 0.941001
vt 0.591999 0.941001
vt 0.591999 0.941001
vt 0.591999 0.941001
vt 0.591999 0.941001
vt 0.591999 0.941001
vt 0.591999 0.941001
vt 0.591999 0.941001
vt 0.591999 0.941001
vt 0.591999 0.941001
vt 0.591999 0.941001
vt 0.591999 0.941001
vt 0.591999 0.941001
vt 0.591999 0.941001
vt 0.591999 0.941001
vt 0.591999 0.941001
vt 0.591999 0.941001
vt 0.658000 0.936000
vt 0.658000 0.936000
vt 0.658000 0.936000
vt 0.658000 0.936000
vt 0.658000 0.936000
vt 0.658000 0.936000
vt 0.658000 0.936000
vt 0.658000 0.936000
vt 0.658000 0.936000
vt 0.658000 0.936000
vt 0.658000 0.936000
vt 0.658000 0.936000
vt 0.591999 0.941001
vt 0.591999 0.941001
vt 0.591999 0.941001
vt 0.591999 0.941001
vt 0.591999 0.941001
vt 0.591999 0.941001
vt 0.591999 0.941001
vt 0.591999 0.941001
vt 0.591999 0.941001
vt 0.591999 0.941001
vt 0.591999 0.941001
vt 0.591999 0.941001
vt 0.658000 0.936000
vt 0.658000 0.936000
vt 0.658000 0.936000
vt 0.658000 0.936000
vt 0.658000 0.936000
vt 0.658000 0.936000
vt 0.658000 0.936000
vt 0.658000 0.936000
vt 0.658000 0.936000
vt 0.658000 0.936000
vt 0.658000 0.936000
vt 0.658000 0.936000
vt 0.658000 0.936000
vt 0.658000 0.936000
vt 0.658000 0.936000
vt 0.658000 0.936000
vt 0.658000 0.936000
vt 0.658000 0.936000
vt 0.658000 0.936000
vt 0.658000 0.936000
vt 0.658000 0.936000
vt 0.658000 0.936000
vt 0.658000 0.936000
vt 0.658000 0.936000
vn -1.0000 0.0000 0.0000
vn 0.0000 0.0000 -1.0000
vn 1.0000 0.0000 0.0000
vn 0.0000 1.0000 0.0000
vn 0.0000 0.0000 1.0000
usemtl Material
s off
f 64/1/1 113/2/1 69/3/1
f 12/4/2 94/5/2 83/6/2
f 95/7/2 73/8/2 163/9/2
f 7/10/2 9/11/2 175/12/2
f 4/13/2 68/14/2 72/15/2
f 11/16/2 10/17/2 98/18/2
f 76/19/2 70/20/2 167/21/2
f 108/22/3 101/23/3 148/24/3
f 93/25/3 247/26/3 236/27/3
f 8/28/3 82/29/3 86/30/3
f 50/31/3 249/32/3 5/33/3
f 46/34/1 259/35/1 115/36/1
f 176/37/4 162/38/4 131/39/4
f 22/40/4 166/41/4 177/42/4
f 147/43/4 182/44/4 143/45/4
f 25/46/4 28/47/4 32/48/4
f 198/49/4 157/50/4 159/51/4
f 3/52/1 114/53/1 179/54/1
f 152/55/1 266/56/1 254/57/1
f 15/58/1 261/59/1 244/60/1
f 138/61/5 150/62/5 192/63/5
f 90/64/3 85/65/3 171/66/3
f 139/67/4 227/68/4 268/69/4
f 273/70/4 221/71/4 223/72/4
f 281/73/4 285/74/4 288/75/4
f 206/76/1 1/77/1 144/78/1
f 260/79/1 207/80/1 40/81/1
f 213/82/1 153/83/1 156/84/1
f 267/85/1 214/86/1 44/87/1
f 24/88/4 191/89/4 43/90/4
f 122/91/4 256/92/4 203/93/4
f 31/94/4 30/95/4 246/96/4
f 37/97/4 39/98/4 186/99/4
f 62/100/1 61/101/1 210/102/1
f 45/103/1 48/104/1 47/105/1
f 18/106/3 89/107/3 193/108/3
f 49/109/3 194/110/3 248/111/3
f 197/112/3 17/113/3 127/114/3
f 41/115/3 42/116/3 36/117/3
f 232/118/3 19/119/3 136/120/3
f 102/121/3 228/122/3 241/123/3
f 110/124/4 222/125/4 54/126/4
f 215/127/4 103/128/4 277/129/4
f 14/130/4 220/131/4 55/132/4
f 111/133/4 155/134/4 56/135/4
f 231/136/4 105/137/4 286/138/4
f 51/139/4 33/140/4 58/141/4
f 52/142/4 272/143/4 59/144/4
f 34/145/4 219/146/4 60/147/4
f 63/148/1 67/149/1 65/150/1
f 77/151/2 81/152/2 79/153/2
f 96/154/2 161/155/2 173/156/2
f 84/157/2 172/158/2 169/159/2
f 66/160/2 74/161/2 99/162/2
f 100/163/2 97/164/2 78/165/2
f 75/166/2 165/167/2 160/168/2
f 109/169/3 145/170/3 29/171/3
f 92/172/3 233/173/3 158/174/3
f 80/175/3 88/176/3 128/177/3
f 211/178/3 91/179/3 6/180/3
f 204/181/1 116/182/1 16/183/1
f 174/184/4 132/185/4 187/186/4
f 164/187/4 178/188/4 133/189/4
f 149/190/4 142/191/4 141/192/4
f 168/193/4 188/194/4 125/195/4
f 201/196/4 27/197/4 235/198/4
f 71/199/1 181/200/1 23/201/1
f 151/202/1 252/203/1 189/204/1
f 117/205/1 242/206/1 180/207/1
f 137/208/5 190/209/5 130/210/5
f 87/211/3 170/212/3 124/213/3
f 140/214/4 270/215/4 20/216/4
f 274/217/4 224/218/4 278/219/4
f 282/220/4 289/221/4 292/222/4
f 208/223/1 21/224/1 184/225/1
f 262/226/1 183/227/1 243/228/1
f 216/229/1 26/230/1 200/231/1
f 271/232/1 199/233/1 253/234/1
f 123/235/4 255/236/4 118/237/4
f 119/238/4 202/239/4 234/240/4
f 134/241/4 245/242/4 237/243/4
f 238/244/4 185/245/4 146/246/4
f 2/247/1 209/248/1 257/249/1
f 258/250/1 263/251/1 205/252/1
f 129/253/3 195/254/3 264/255/3
f 265/256/3 250/257/3 212/258/3
f 196/259/3 126/260/3 120/261/3
f 251/262/3 121/263/3 35/264/3
f 229/265/3 135/266/3 239/267/3
f 106/268/3 240/269/3 38/270/3
f 112/271/4 275/272/4 104/273/4
f 217/274/4 276/275/4 279/276/4
f 154/277/4 280/278/4 225/279/4
f 13/280/4 226/281/4 53/282/4
f 230/283/4 287/284/4 283/285/4
f 269/286/4 284/287/4 293/288/4
f 218/289/4 294/290/4 290/291/4
f 107/292/4 291/293/4 57/294/4
