# Blender v2.90.1 OBJ File: 'blind_alley_split.blend'
# www.blender.org
o Cube_Cube.001
v -5.000000 0.000000 5.000000
v -5.000000 0.500000 5.000000
v -5.000000 0.000000 -5.000000
v -5.000000 0.500000 -5.000000
v 5.000000 0.000000 5.000000
v 5.000000 0.500000 5.000000
v 5.000000 0.000000 -5.000000
v 5.000000 0.500000 -5.000000
v 3.250000 0.000000 -5.000000
v -3.250000 0.000000 -5.000000
v -3.250000 0.500000 -5.000000
v 3.250000 0.500000 -5.000000
v -5.000000 0.500000 -0.000000
v -5.000000 0.000000 0.000000
v 3.250000 0.500000 5.000000
v -3.250000 0.500000 5.000000
v -5.000000 0.000000 -3.250000
v -5.000000 0.000000 3.250000
v -5.000000 0.500000 3.250000
v -5.000000 0.500000 -3.250000
v 5.000000 0.000000 3.250000
v 5.000000 0.000000 -3.250000
v 5.000000 0.500000 -3.250000
v 5.000000 0.500000 3.250000
v 3.250000 0.500000 -3.250000
v 3.250000 0.500000 3.250000
v -3.250000 0.500000 -3.250000
v -3.250000 0.500000 3.250000
v 5.000000 0.500000 0.000000
v 5.000000 0.000000 -0.000000
v 3.250000 0.500000 0.000000
v -3.250000 0.500000 0.000000
v 3.250000 0.200000 5.000000
v -3.250000 0.200000 5.000000
v 3.250000 0.200000 2.134311
v -3.250000 0.200000 2.134311
v 3.250000 0.200000 -3.250000
v -3.250000 0.200000 -3.250000
v 3.250000 0.200000 -0.716851
v -3.250000 0.200000 -0.716851
v 0.367476 0.200000 2.652718
v -0.367476 0.200000 2.652718
v -0.367476 0.200000 4.746603
v 0.367476 0.200000 4.746603
v 0.367476 0.200000 -0.196948
v -0.367476 0.200000 -0.196948
v -0.367476 0.200000 1.879418
v 0.367476 0.200000 1.879418
v -5.000000 0.000000 3.250000
v -5.000000 0.000000 3.250000
v -5.000000 0.500000 5.000000
v -5.000000 0.500000 5.000000
v -5.000000 0.500000 -3.250000
v -5.000000 0.500000 -3.250000
v -5.000000 0.500000 -3.250000
v -5.000000 0.500000 -3.250000
v -5.000000 0.500000 -3.250000
v -5.000000 0.500000 -5.000000
v -5.000000 0.500000 -5.000000
v -5.000000 0.500000 -5.000000
v -5.000000 0.000000 -5.000000
v -5.000000 0.000000 -5.000000
v -3.250000 0.000000 -5.000000
v -3.250000 0.000000 -5.000000
v 3.250000 0.500000 -5.000000
v 3.250000 0.500000 -5.000000
v 3.250000 0.500000 -5.000000
v 3.250000 0.500000 -5.000000
v 3.250000 0.500000 -5.000000
v 5.000000 0.500000 -5.000000
v 5.000000 0.500000 -5.000000
v 5.000000 0.500000 -5.000000
v 5.000000 0.000000 -5.000000
v 5.000000 0.000000 -5.000000
v 5.000000 0.000000 -3.250000
v 5.000000 0.000000 -3.250000
v 5.000000 0.500000 3.250000
v 5.000000 0.500000 3.250000
v 5.000000 0.500000 3.250000
v 5.000000 0.500000 3.250000
v 5.000000 0.500000 3.250000
v 5.000000 0.500000 5.000000
v 5.000000 0.500000 5.000000
v 5.000000 0.000000 5.000000
v -5.000000 0.500000 3.250000
v -5.000000 0.500000 3.250000
v -5.000000 0.500000 3.250000
v -5.000000 0.500000 3.250000
v -5.000000 0.500000 3.250000
v -5.000000 0.500000 3.250000
v -5.000000 0.500000 -0.000000
v -5.000000 0.500000 -0.000000
v -5.000000 0.500000 -0.000000
v -5.000000 0.500000 -0.000000
v -5.000000 0.500000 -0.000000
v -3.250000 0.500000 5.000000
v -3.250000 0.500000 5.000000
v 3.250000 0.000000 -5.000000
v 3.250000 0.000000 -5.000000
v -3.250000 0.500000 -5.000000
v -3.250000 0.500000 -5.000000
v -3.250000 0.500000 -5.000000
v -3.250000 0.500000 -5.000000
v -3.250000 0.500000 -5.000000
v -3.250000 0.500000 -5.000000
v 5.000000 0.500000 -3.250000
v 5.000000 0.500000 -3.250000
v 5.000000 0.500000 -3.250000
v 5.000000 0.500000 -3.250000
v 5.000000 0.500000 -3.250000
v 5.000000 0.500000 0.000000
v 5.000000 0.500000 0.000000
v 5.000000 0.500000 0.000000
v 5.000000 0.500000 0.000000
v 5.000000 0.500000 0.000000
v 3.250000 0.500000 5.000000
v 3.250000 0.500000 3.250000
v 3.250000 0.500000 3.250000
v 3.250000 0.500000 3.250000
v 3.250000 0.500000 3.250000
v 3.250000 0.500000 3.250000
v -3.250000 0.500000 3.250000
v -3.250000 0.500000 3.250000
v -3.250000 0.500000 3.250000
v -3.250000 0.500000 3.250000
v -3.250000 0.500000 -3.250000
v -3.250000 0.500000 -3.250000
v -3.250000 0.500000 -3.250000
v -3.250000 0.500000 -3.250000
v -3.250000 0.500000 -3.250000
v -3.250000 0.500000 -3.250000
v -3.250000 0.500000 -3.250000
v -3.250000 0.500000 0.000000
v -3.250000 0.500000 0.000000
v -3.250000 0.500000 0.000000
v -3.250000 0.500000 0.000000
v -3.250000 0.500000 0.000000
v 3.250000 0.500000 0.000000
v 3.250000 0.500000 0.000000
v 3.250000 0.500000 0.000000
v 3.250000 0.500000 0.000000
v 3.250000 0.500000 0.000000
v -5.000000 0.000000 -3.250000
v -5.000000 0.000000 -3.250000
v -5.000000 0.000000 0.000000
v -5.000000 0.000000 0.000000
v 5.000000 0.000000 3.250000
v 5.000000 0.000000 3.250000
v 5.000000 0.000000 -0.000000
v 5.000000 0.000000 -0.000000
v 3.250000 0.500000 -3.250000
v 3.250000 0.500000 -3.250000
v 3.250000 0.500000 -3.250000
v 3.250000 0.500000 -3.250000
v 3.250000 0.500000 -3.250000
v 3.250000 0.500000 -3.250000
v 3.250000 0.500000 -3.250000
v 3.250000 0.200000 -0.716851
v 3.250000 0.200000 -0.716851
v 3.250000 0.200000 -0.716851
v 3.250000 0.200000 -0.716851
v 3.250000 0.200000 -0.716851
v 3.250000 0.200000 -0.716851
v -3.250000 0.200000 -3.250000
v -3.250000 0.200000 -3.250000
v -3.250000 0.200000 -3.250000
v -3.250000 0.200000 -0.716851
v -3.250000 0.200000 -0.716851
v -3.250000 0.200000 -0.716851
v -3.250000 0.200000 -0.716851
v -3.250000 0.200000 -0.716851
v -3.250000 0.200000 -0.716851
v 3.250000 0.200000 -3.250000
v 3.250000 0.200000 -3.250000
v 3.250000 0.200000 -3.250000
v 3.250000 0.200000 2.134311
v 3.250000 0.200000 2.134311
v 3.250000 0.200000 2.134311
v 3.250000 0.200000 2.134311
v 3.250000 0.200000 2.134311
v 3.250000 0.200000 2.134311
v 3.250000 0.200000 2.134311
v 3.250000 0.200000 2.134311
v 0.367476 0.200000 4.746603
v 0.367476 0.200000 4.746603
v 0.367476 0.200000 4.746603
v 0.367476 0.200000 4.746603
v -0.367476 0.200000 4.746603
v -0.367476 0.200000 4.746603
v 3.250000 0.200000 5.000000
v 3.250000 0.200000 5.000000
v 3.250000 0.200000 5.000000
v 3.250000 0.200000 5.000000
v -3.250000 0.200000 2.134311
v -3.250000 0.200000 2.134311
v -3.250000 0.200000 2.134311
v -3.250000 0.200000 2.134311
v -3.250000 0.200000 2.134311
v -3.250000 0.200000 2.134311
v -3.250000 0.200000 2.134311
v -3.250000 0.200000 2.134311
v -3.250000 0.200000 5.000000
v -3.250000 0.200000 5.000000
v -3.250000 0.200000 5.000000
v -3.250000 0.200000 5.000000
v -3.250000 0.200000 5.000000
v -0.367476 0.200000 2.652718
v -0.367476 0.200000 2.652718
v -0.367476 0.200000 2.652718
v -0.367476 0.200000 2.652718
v 0.367476 0.200000 2.652718
v 0.367476 0.200000 2.652718
v 0.367476 0.200000 2.652718
v 0.367476 0.200000 2.652718
v -0.367476 0.200000 -0.196948
v -0.367476 0.200000 -0.196948
v -0.367476 0.200000 -0.196948
v -0.367476 0.200000 -0.196948
v 0.367476 0.200000 -0.196948
v 0.367476 0.200000 -0.196948
v 0.367476 0.200000 -0.196948
v 0.367476 0.200000 -0.196948
v 0.367476 0.200000 1.879418
v 0.367476 0.200000 1.879418
v 0.367476 0.200000 1.879418
v -0.367476 0.200000 1.879418
v -0.367476 0.200000 1.879418
v -0.367476 0.200000 1.879418
vt 0.592000 0.940999
vt 0.592000 0.940999
vt 0.592000 0.940999
vt 0.592000 0.940999
vt 0.592000 0.940999
vt 0.592000 0.940999
vt 0.592000 0.940999
vt 0.592000 0.940999
vt 0.592000 0.940999
vt 0.592000 0.940999
vt 0.592000 0.940999
vt 0.592000 0.940999
vt 0.592000 0.940999
vt 0.592000 0.940999
vt 0.592000 0.940999
vt 0.592000 0.940999
vt 0.592000 0.940999
vt 0.592000 0.940999
vt 0.592000 0.940999
vt 0.592000 0.940999
vt 0.592000 0.940999
vt 0.658000 0.936000
vt 0.658000 0.936000
vt 0.658000 0.936000
vt 0.592000 0.940999
vt 0.592000 0.940999
vt 0.592000 0.940999
vt 0.592000 0.940999
vt 0.592000 0.940999
vt 0.592000 0.940999
vt 0.592000 0.940999
vt 0.592000 0.940999
vt 0.592000 0.940999
vt 0.592000 0.940999
vt 0.592000 0.940999
vt 0.592000 0.940999
vt 0.592000 0.940999
vt 0.592000 0.940999
vt 0.592000 0.940999
vt 0.592000 0.940999
vt 0.592000 0.940999
vt 0.592000 0.940999
vt 0.592000 0.940999
vt 0.592000 0.940999
vt 0.592000 0.940999
vt 0.592000 0.940999
vt 0.592000 0.940999
vt 0.592000 0.940999
vt 0.592000 0.940999
vt 0.592000 0.940999
vt 0.592000 0.940999
vt 0.592000 0.940999
vt 0.592000 0.940999
vt 0.592000 0.940999
vt 0.592000 0.940999
vt 0.592000 0.940999
vt 0.592000 0.940999
vt 0.592000 0.940999
vt 0.592000 0.940999
vt 0.592000 0.940999
vt 0.592000 0.940999
vt 0.592000 0.940999
vt 0.592000 0.940999
vt 0.592000 0.940999
vt 0.592000 0.940999
vt 0.592000 0.940999
vt 0.592000 0.940999
vt 0.592000 0.940999
vt 0.592000 0.940999
vt 0.592000 0.940999
vt 0.592000 0.940999
vt 0.592000 0.940999
vt 0.592000 0.940999
vt 0.592000 0.940999
vt 0.592000 0.940999
vt 0.057617 0.927556
vt 0.057617 0.927556
vt 0.057617 0.927556
vt 0.057617 0.927556
vt 0.057617 0.927556
vt 0.057617 0.927556
vt 0.592000 0.940999
vt 0.592000 0.940999
vt 0.592000 0.940999
vt 0.592000 0.940999
vt 0.592000 0.940999
vt 0.592000 0.940999
vt 0.592000 0.940999
vt 0.592000 0.940999
vt 0.592000 0.940999
vt 0.658000 0.936000
vt 0.658000 0.936000
vt 0.658000 0.936000
vt 0.658000 0.936000
vt 0.658000 0.936000
vt 0.658000 0.936000
vt 0.658000 0.936000
vt 0.658000 0.936000
vt 0.658000 0.936000
vt 0.658000 0.936000
vt 0.658000 0.936000
vt 0.658000 0.936000
vt 0.658000 0.936000
vt 0.658000 0.936000
vt 0.658000 0.936000
vt 0.658000 0.936000
vt 0.658000 0.936000
vt 0.658000 0.936000
vt 0.658000 0.936000
vt 0.658000 0.936000
vt 0.658000 0.936000
vt 0.658000 0.936000
vt 0.658000 0.936000
vt 0.658000 0.936000
vt 0.592000 0.940999
vt 0.592000 0.940999
vt 0.592000 0.940999
vt 0.592000 0.940999
vt 0.592000 0.940999
vt 0.592000 0.940999
vt 0.592000 0.940999
vt 0.592000 0.940999
vt 0.592000 0.940999
vt 0.592000 0.940999
vt 0.592000 0.940999
vt 0.592000 0.940999
vt 0.592000 0.940999
vt 0.592000 0.940999
vt 0.592000 0.940999
vt 0.592000 0.940999
vt 0.592000 0.940999
vt 0.592000 0.940999
vt 0.592000 0.940999
vt 0.592000 0.940999
vt 0.592000 0.940999
vt 0.658000 0.936000
vt 0.658000 0.936000
vt 0.658000 0.936000
vt 0.592000 0.940999
vt 0.592000 0.940999
vt 0.592000 0.940999
vt 0.592000 0.940999
vt 0.592000 0.940999
vt 0.592000 0.940999
vt 0.592000 0.940999
vt 0.592000 0.940999
vt 0.592000 0.940999
vt 0.592000 0.940999
vt 0.592000 0.940999
vt 0.592000 0.940999
vt 0.592000 0.940999
vt 0.592000 0.940999
vt 0.592000 0.940999
vt 0.592000 0.940999
vt 0.592000 0.940999
vt 0.592000 0.940999
vt 0.592000 0.940999
vt 0.592000 0.940999
vt 0.592000 0.940999
vt 0.592000 0.940999
vt 0.592000 0.940999
vt 0.592000 0.940999
vt 0.592000 0.940999
vt 0.592000 0.940999
vt 0.592000 0.940999
vt 0.592000 0.940999
vt 0.592000 0.940999
vt 0.592000 0.940999
vt 0.592000 0.940999
vt 0.592000 0.940999
vt 0.592000 0.940999
vt 0.592000 0.940999
vt 0.592000 0.940999
vt 0.592000 0.940999
vt 0.592000 0.940999
vt 0.592000 0.940999
vt 0.592000 0.940999
vt 0.592000 0.940999
vt 0.592000 0.940999
vt 0.592000 0.940999
vt 0.592000 0.940999
vt 0.592000 0.940999
vt 0.592000 0.940999
vt 0.592000 0.940999
vt 0.592000 0.940999
vt 0.592000 0.940999
vt 0.592000 0.940999
vt 0.592000 0.940999
vt 0.592000 0.940999
vt 0.057617 0.927556
vt 0.057617 0.927556
vt 0.057617 0.927556
vt 0.057617 0.927556
vt 0.057617 0.927556
vt 0.057617 0.927556
vt 0.592000 0.940999
vt 0.592000 0.940999
vt 0.592000 0.940999
vt 0.592000 0.940999
vt 0.592000 0.940999
vt 0.592000 0.940999
vt 0.592000 0.940999
vt 0.592000 0.940999
vt 0.592000 0.940999
vt 0.658000 0.936000
vt 0.658000 0.936000
vt 0.658000 0.936000
vt 0.658000 0.936000
vt 0.658000 0.936000
vt 0.658000 0.936000
vt 0.658000 0.936000
vt 0.658000 0.936000
vt 0.658000 0.936000
vt 0.658000 0.936000
vt 0.658000 0.936000
vt 0.658000 0.936000
vt 0.658000 0.936000
vt 0.658000 0.936000
vt 0.658000 0.936000
vt 0.658000 0.936000
vt 0.658000 0.936000
vt 0.658000 0.936000
vt 0.658000 0.936000
vt 0.658000 0.936000
vt 0.658000 0.936000
vt 0.658000 0.936000
vt 0.658000 0.936000
vt 0.658000 0.936000
vn -1.0000 -0.0000 0.0000
vn 0.0000 0.0000 -1.0000
vn 1.0000 -0.0000 0.0000
vn 0.0000 1.0000 0.0000
vn 0.0000 0.0000 1.0000
s off
f 55/1/1 3/2/1 144/3/1
f 67/4/2 7/5/2 98/6/2
f 80/7/3 5/8/3 148/9/3
f 129/10/3 167/11/3 164/12/3
f 87/13/4 97/14/4 122/15/4
f 119/16/4 6/17/4 79/18/4
f 124/19/3 202/20/3 194/21/3
f 165/22/4 160/23/4 173/24/4
f 139/25/1 176/26/1 118/27/1
f 4/28/2 63/29/2 62/30/2
f 105/31/2 99/32/2 64/33/2
f 132/34/4 93/35/4 135/36/4
f 109/37/3 150/38/3 76/39/3
f 88/40/1 146/41/1 50/42/1
f 11/43/4 151/44/4 68/45/4
f 26/46/1 191/47/1 15/48/1
f 12/49/4 107/50/4 71/51/4
f 138/52/4 78/53/4 112/54/4
f 104/55/4 20/56/4 131/57/4
f 134/58/4 19/59/4 123/60/4
f 157/61/4 115/62/4 23/63/4
f 8/64/3 75/65/3 74/66/3
f 29/67/3 147/68/3 149/69/3
f 51/70/1 49/71/1 1/72/1
f 13/73/1 143/74/1 145/75/1
f 207/76/4 185/77/4 211/78/4
f 215/79/4 223/80/4 219/81/4
f 32/82/3 195/83/3 170/84/3
f 27/85/5 174/86/5 155/87/5
f 25/88/1 163/89/1 31/90/1
f 196/91/4 212/92/4 179/93/4
f 34/94/4 42/95/4 36/96/4
f 206/97/4 187/98/4 43/99/4
f 33/100/4 41/101/4 44/102/4
f 172/103/4 220/104/4 161/105/4
f 200/106/4 46/107/4 40/108/4
f 183/109/4 47/110/4 201/111/4
f 35/112/4 45/113/4 48/114/4
f 53/115/1 58/116/1 61/117/1
f 65/118/2 70/119/2 73/120/2
f 77/121/3 82/122/3 84/123/3
f 126/124/3 133/125/3 169/126/3
f 86/127/4 52/128/4 96/129/4
f 117/130/4 116/131/4 83/132/4
f 125/133/3 16/134/3 203/135/3
f 166/136/4 168/137/4 159/138/4
f 140/139/1 158/140/1 178/141/1
f 59/142/2 100/143/2 10/144/2
f 101/145/2 66/146/2 9/147/2
f 128/148/4 54/149/4 92/150/4
f 106/151/3 111/152/3 30/153/3
f 85/154/1 91/155/1 14/156/1
f 102/157/4 127/158/4 153/159/4
f 120/160/1 177/161/1 190/162/1
f 69/163/4 154/164/4 108/165/4
f 142/166/4 121/167/4 81/168/4
f 103/169/4 60/170/4 56/171/4
f 136/172/4 95/173/4 89/174/4
f 152/175/4 141/176/4 113/177/4
f 72/178/3 110/179/3 22/180/3
f 114/181/3 24/182/3 21/183/3
f 2/184/1 90/185/1 18/186/1
f 94/187/1 57/188/1 17/189/1
f 208/190/4 188/191/4 184/192/4
f 216/193/4 226/194/4 224/195/4
f 137/196/3 28/197/3 199/198/3
f 130/199/5 38/200/5 175/201/5
f 156/202/1 37/203/1 162/204/1
f 197/205/4 209/206/4 213/207/4
f 204/208/4 189/209/4 210/210/4
f 205/211/4 192/212/4 186/213/4
f 193/214/4 182/215/4 214/216/4
f 171/217/4 217/218/4 221/219/4
f 198/220/4 227/221/4 218/222/4
f 180/223/4 225/224/4 228/225/4
f 181/226/4 39/227/4 222/228/4
