# Blender v2.90.1 OBJ File: 'forward_split.blend'
# www.blender.org
o Cube_Cube.001
v -5.000000 0.000000 5.000000
v -5.000000 0.500000 5.000000
v -5.000000 0.000000 -5.000000
v -5.000000 0.500000 -5.000000
v 5.000000 0.000000 5.000000
v 5.000000 0.500000 5.000000
v 5.000000 0.000000 -5.000000
v 5.000000 0.500000 -5.000000
v -5.000000 0.000000 1.666667
v -5.000000 0.000000 -1.666667
v -3.250000 0.500000 -5.000000
v 3.250000 0.500000 -5.000000
v -5.000000 0.500000 -1.666667
v -5.000000 0.500000 1.666667
v 3.250000 0.500000 5.000000
v -3.250000 0.500000 5.000000
v -3.250000 0.200000 -5.000000
v 3.250000 0.200000 -5.000000
v 3.250000 0.200000 5.000000
v -3.250000 0.200000 5.000000
v 5.000000 0.000000 1.666667
v 5.000000 0.000000 -1.666667
v 5.000000 0.500000 -1.666667
v 5.000000 0.500000 1.666667
v 3.250000 0.500000 -1.666667
v 3.250000 0.500000 1.666667
v -3.250000 0.500000 -1.666667
v -3.250000 0.500000 1.666667
v 3.250000 0.200000 -1.666667
v 3.250000 0.200000 1.666667
v -3.250000 0.200000 -1.666667
v -3.250000 0.200000 1.666667
v 0.329447 0.200000 -4.323392
v -0.329447 0.200000 -4.323392
v -0.329447 0.200000 -2.343274
v 0.329447 0.200000 -2.343274
v 0.329447 0.200000 2.343274
v -0.329447 0.200000 2.343274
v -0.329447 0.200000 4.323392
v 0.329447 0.200000 4.323392
v 0.329447 0.200000 -0.990059
v -0.329447 0.200000 -0.990059
v -0.329447 0.200000 0.990059
v 0.329447 0.200000 0.990059
v -5.000000 0.000000 1.666667
v -5.000000 0.000000 1.666667
v -5.000000 0.500000 5.000000
v -5.000000 0.500000 5.000000
v -5.000000 0.500000 -1.666667
v -5.000000 0.500000 -1.666667
v -5.000000 0.500000 -1.666667
v -5.000000 0.500000 -1.666667
v -5.000000 0.500000 -5.000000
v -5.000000 0.500000 -5.000000
v -5.000000 0.000000 -5.000000
v -5.000000 0.000000 -1.666667
v -5.000000 0.000000 -1.666667
v 3.250000 0.500000 -5.000000
v 3.250000 0.500000 -5.000000
v 3.250000 0.500000 -5.000000
v 5.000000 0.500000 -5.000000
v 5.000000 0.500000 -5.000000
v 5.000000 0.000000 -1.666667
v 5.000000 0.000000 -1.666667
v 5.000000 0.500000 1.666667
v 5.000000 0.500000 1.666667
v 5.000000 0.500000 1.666667
v 5.000000 0.500000 1.666667
v 5.000000 0.500000 1.666667
v 5.000000 0.500000 5.000000
v 5.000000 0.500000 5.000000
v 5.000000 0.000000 5.000000
v 5.000000 0.500000 -1.666667
v 5.000000 0.500000 -1.666667
v 5.000000 0.500000 -1.666667
v 5.000000 0.500000 -1.666667
v 5.000000 0.500000 -1.666667
v -3.250000 0.500000 5.000000
v -3.250000 0.500000 5.000000
v -3.250000 0.500000 5.000000
v 5.000000 0.000000 1.666667
v 5.000000 0.000000 1.666667
v -3.250000 0.500000 -5.000000
v -5.000000 0.500000 1.666667
v -5.000000 0.500000 1.666667
v -5.000000 0.500000 1.666667
v -5.000000 0.500000 1.666667
v -5.000000 0.500000 1.666667
v -5.000000 0.500000 1.666667
v 3.250000 0.500000 -1.666667
v 3.250000 0.500000 -1.666667
v 3.250000 0.500000 -1.666667
v 3.250000 0.500000 -1.666667
v 3.250000 0.500000 -1.666667
v 3.250000 0.500000 1.666667
v 3.250000 0.500000 1.666667
v 3.250000 0.500000 1.666667
v 3.250000 0.500000 1.666667
v 3.250000 0.500000 1.666667
v 3.250000 0.200000 -1.666667
v 3.250000 0.200000 -1.666667
v 3.250000 0.200000 -1.666667
v 3.250000 0.200000 -1.666667
v 3.250000 0.200000 -1.666667
v 3.250000 0.200000 -1.666667
v 3.250000 0.200000 -1.666667
v 3.250000 0.200000 -1.666667
v 3.250000 0.200000 1.666667
v 3.250000 0.200000 1.666667
v 3.250000 0.200000 1.666667
v 3.250000 0.200000 1.666667
v 3.250000 0.200000 1.666667
v 3.250000 0.200000 1.666667
v 3.250000 0.200000 1.666667
v 3.250000 0.500000 5.000000
v 3.250000 0.200000 -5.000000
v 3.250000 0.200000 -5.000000
v 3.250000 0.200000 -5.000000
v -3.250000 0.500000 1.666667
v -3.250000 0.500000 1.666667
v -3.250000 0.500000 1.666667
v -3.250000 0.500000 1.666667
v -3.250000 0.500000 -1.666667
v -3.250000 0.500000 -1.666667
v -3.250000 0.500000 -1.666667
v -3.250000 0.500000 -1.666667
v -3.250000 0.500000 -1.666667
v -3.250000 0.500000 -1.666667
v -0.329447 0.200000 -4.323392
v -0.329447 0.200000 -4.323392
v -0.329447 0.200000 -4.323392
v 0.329447 0.200000 -4.323392
v 0.329447 0.200000 -4.323392
v 0.329447 0.200000 -4.323392
v 0.329447 0.200000 4.323392
v 0.329447 0.200000 4.323392
v 0.329447 0.200000 4.323392
v -0.329447 0.200000 4.323392
v -0.329447 0.200000 4.323392
v -0.329447 0.200000 4.323392
v 3.250000 0.200000 5.000000
v 3.250000 0.200000 5.000000
v 3.250000 0.200000 5.000000
v 3.250000 0.200000 5.000000
v 3.250000 0.200000 5.000000
v -3.250000 0.200000 1.666667
v -3.250000 0.200000 1.666667
v -3.250000 0.200000 1.666667
v -3.250000 0.200000 1.666667
v -3.250000 0.200000 1.666667
v -3.250000 0.200000 1.666667
v -3.250000 0.200000 1.666667
v -3.250000 0.200000 1.666667
v -3.250000 0.200000 5.000000
v -3.250000 0.200000 5.000000
v -3.250000 0.200000 5.000000
v -3.250000 0.200000 -5.000000
v -3.250000 0.200000 -5.000000
v -3.250000 0.200000 -5.000000
v -3.250000 0.200000 -5.000000
v -3.250000 0.200000 -5.000000
v -3.250000 0.200000 -1.666667
v -3.250000 0.200000 -1.666667
v -3.250000 0.200000 -1.666667
v -3.250000 0.200000 -1.666667
v -3.250000 0.200000 -1.666667
v -3.250000 0.200000 -1.666667
v -3.250000 0.200000 -1.666667
v 0.329447 0.200000 -2.343274
v 0.329447 0.200000 -2.343274
v 0.329447 0.200000 -2.343274
v 0.329447 0.200000 -2.343274
v -0.329447 0.200000 -2.343274
v -0.329447 0.200000 -2.343274
v -0.329447 0.200000 -2.343274
v -0.329447 0.200000 -2.343274
v -0.329447 0.200000 2.343274
v -0.329447 0.200000 2.343274
v -0.329447 0.200000 2.343274
v -0.329447 0.200000 2.343274
v 0.329447 0.200000 2.343274
v 0.329447 0.200000 2.343274
v 0.329447 0.200000 2.343274
v 0.329447 0.200000 2.343274
v -0.329447 0.200000 -0.990059
v -0.329447 0.200000 -0.990059
v -0.329447 0.200000 -0.990059
v -0.329447 0.200000 -0.990059
v 0.329447 0.200000 -0.990059
v 0.329447 0.200000 -0.990059
v 0.329447 0.200000 -0.990059
v 0.329447 0.200000 0.990059
v 0.329447 0.200000 0.990059
v 0.329447 0.200000 0.990059
v 0.329447 0.200000 0.990059
v -0.329447 0.200000 0.990059
v -0.329447 0.200000 0.990059
v -0.329447 0.200000 0.990059
vt 0.592000 0.941000
vt 0.592000 0.941000
vt 0.592000 0.941000
vt 0.060547 0.958984
vt 0.060547 0.958984
vt 0.060547 0.958984
vt 0.592000 0.941000
vt 0.592000 0.941000
vt 0.592000 0.941000
vt 0.592000 0.941000
vt 0.592000 0.941000
vt 0.592000 0.941000
vt 0.592000 0.941000
vt 0.592000 0.941000
vt 0.592000 0.941000
vt 0.592000 0.941000
vt 0.592000 0.941000
vt 0.592000 0.941000
vt 0.592000 0.941000
vt 0.592000 0.941000
vt 0.592000 0.941000
vt 0.592000 0.941000
vt 0.592000 0.941000
vt 0.592000 0.941000
vt 0.592000 0.941000
vt 0.592000 0.941000
vt 0.592000 0.941000
vt 0.592000 0.941000
vt 0.592000 0.941000
vt 0.592000 0.941000
vt 0.592000 0.941000
vt 0.592000 0.941000
vt 0.592000 0.941000
vt 0.592000 0.941000
vt 0.592000 0.941000
vt 0.592000 0.941000
vt 0.592000 0.941000
vt 0.592000 0.941000
vt 0.592000 0.941000
vt 0.592000 0.941000
vt 0.592000 0.941000
vt 0.592000 0.941000
vt 0.060547 0.958984
vt 0.060547 0.958984
vt 0.060547 0.958984
vt 0.592000 0.941000
vt 0.592000 0.941000
vt 0.592000 0.941000
vt 0.592000 0.941000
vt 0.592000 0.941000
vt 0.592000 0.941000
vt 0.060547 0.958984
vt 0.060547 0.958984
vt 0.060547 0.958984
vt 0.592000 0.941000
vt 0.592000 0.941000
vt 0.592000 0.941000
vt 0.592000 0.941000
vt 0.592000 0.941000
vt 0.592000 0.941000
vt 0.592000 0.941000
vt 0.592000 0.941000
vt 0.592000 0.941000
vt 0.658000 0.936000
vt 0.658000 0.936000
vt 0.658000 0.936000
vt 0.658000 0.936000
vt 0.658000 0.936000
vt 0.658000 0.936000
vt 0.658000 0.936000
vt 0.658000 0.936000
vt 0.658000 0.936000
vt 0.658000 0.936000
vt 0.658000 0.936000
vt 0.658000 0.936000
vt 0.658000 0.936000
vt 0.658000 0.936000
vt 0.658000 0.936000
vt 0.658000 0.936000
vt 0.658000 0.936000
vt 0.658000 0.936000
vt 0.658000 0.936000
vt 0.658000 0.936000
vt 0.658000 0.936000
vt 0.658000 0.936000
vt 0.658000 0.936000
vt 0.658000 0.936000
vt 0.658000 0.936000
vt 0.658000 0.936000
vt 0.658000 0.936000
vt 0.658000 0.936000
vt 0.658000 0.936000
vt 0.658000 0.936000
vt 0.658000 0.936000
vt 0.658000 0.936000
vt 0.658000 0.936000
vt 0.658000 0.936000
vt 0.658000 0.936000
vt 0.658000 0.936000
vt 0.592000 0.941000
vt 0.592000 0.941000
vt 0.592000 0.941000
vt 0.060547 0.958984
vt 0.060547 0.958984
vt 0.060547 0.958984
vt 0.592000 0.941000
vt 0.592000 0.941000
vt 0.592000 0.941000
vt 0.592000 0.941000
vt 0.592000 0.941000
vt 0.592000 0.941000
vt 0.592000 0.941000
vt 0.592000 0.941000
vt 0.592000 0.941000
vt 0.592000 0.941000
vt 0.592000 0.941000
vt 0.592000 0.941000
vt 0.592000 0.941000
vt 0.592000 0.941000
vt 0.592000 0.941000
vt 0.592000 0.941000
vt 0.592000 0.941000
vt 0.592000 0.941000
vt 0.592000 0.941000
vt 0.592000 0.941000
vt 0.592000 0.941000
vt 0.592000 0.941000
vt 0.592000 0.941000
vt 0.592000 0.941000
vt 0.592000 0.941000
vt 0.592000 0.941000
vt 0.592000 0.941000
vt 0.592000 0.941000
vt 0.592000 0.941000
vt 0.592000 0.941000
vt 0.592000 0.941000
vt 0.592000 0.941000
vt 0.592000 0.941000
vt 0.592000 0.941000
vt 0.592000 0.941000
vt 0.592000 0.941000
vt 0.060547 0.958984
vt 0.060547 0.958984
vt 0.060547 0.958984
vt 0.592000 0.941000
vt 0.592000 0.941000
vt 0.592000 0.941000
vt 0.592000 0.941000
vt 0.592000 0.941000
vt 0.592000 0.941000
vt 0.060547 0.958984
vt 0.060547 0.958984
vt 0.060547 0.958984
vt 0.592000 0.941000
vt 0.592000 0.941000
vt 0.592000 0.941000
vt 0.592000 0.941000
vt 0.592000 0.941000
vt 0.592000 0.941000
vt 0.592000 0.941000
vt 0.592000 0.941000
vt 0.592000 0.941000
vt 0.658000 0.936000
vt 0.658000 0.936000
vt 0.658000 0.936000
vt 0.658000 0.936000
vt 0.658000 0.936000
vt 0.658000 0.936000
vt 0.658000 0.936000
vt 0.658000 0.936000
vt 0.658000 0.936000
vt 0.658000 0.936000
vt 0.658000 0.936000
vt 0.658000 0.936000
vt 0.658000 0.936000
vt 0.658000 0.936000
vt 0.658000 0.936000
vt 0.658000 0.936000
vt 0.658000 0.936000
vt 0.658000 0.936000
vt 0.658000 0.936000
vt 0.658000 0.936000
vt 0.658000 0.936000
vt 0.658000 0.936000
vt 0.658000 0.936000
vt 0.658000 0.936000
vt 0.658000 0.936000
vt 0.658000 0.936000
vt 0.658000 0.936000
vt 0.658000 0.936000
vt 0.658000 0.936000
vt 0.658000 0.936000
vt 0.658000 0.936000
vt 0.658000 0.936000
vt 0.658000 0.936000
vt 0.658000 0.936000
vt 0.658000 0.936000
vt 0.658000 0.936000
vn -1.0000 0.0000 0.0000
vn 0.0000 1.0000 -0.0000
vn 1.0000 0.0000 0.0000
s off
f 51/1/1 3/2/1 57/3/1
f 129/4/2 169/5/2 132/6/2
f 68/7/3 5/8/3 82/9/3
f 58/10/2 74/11/2 61/12/2
f 96/13/1 142/14/1 15/15/1
f 86/16/2 79/17/2 119/18/2
f 98/19/2 6/20/2 67/21/2
f 12/22/1 103/23/1 92/24/1
f 90/25/1 112/26/1 95/27/1
f 123/28/2 14/29/2 120/30/2
f 25/31/2 66/32/2 73/33/2
f 62/34/3 63/35/3 7/36/3
f 124/37/3 157/38/3 11/39/3
f 28/40/3 168/41/3 27/42/3
f 177/43/2 136/44/2 181/45/2
f 16/46/3 151/47/3 122/48/3
f 54/49/2 128/50/2 83/51/2
f 185/52/2 192/53/2 189/54/2
f 23/55/3 81/56/3 64/57/3
f 47/58/1 45/59/1 1/60/1
f 89/61/1 56/62/1 46/63/1
f 159/64/2 133/65/2 117/66/2
f 17/67/2 35/68/2 34/69/2
f 102/70/2 176/71/2 164/72/2
f 18/73/2 36/74/2 29/75/2
f 148/76/2 182/77/2 110/78/2
f 20/79/2 38/80/2 153/81/2
f 143/82/2 39/83/2 156/84/2
f 19/85/2 37/86/2 40/87/2
f 167/88/2 190/89/2 105/90/2
f 32/91/2 42/92/2 31/93/2
f 30/94/2 43/95/2 152/96/2
f 107/97/2 44/98/2 113/99/2
f 49/100/1 53/101/1 55/102/1
f 130/103/2 173/104/2 170/105/2
f 65/106/3 70/107/3 72/108/3
f 59/109/2 91/110/2 75/111/2
f 97/112/1 109/113/1 141/114/1
f 85/115/2 48/116/2 78/117/2
f 99/118/2 115/119/2 71/120/2
f 60/121/1 116/122/1 101/123/1
f 93/124/1 100/125/1 108/126/1
f 126/127/2 50/128/2 84/129/2
f 94/130/2 26/131/2 69/132/2
f 8/133/3 76/134/3 22/135/3
f 125/136/3 162/137/3 158/138/3
f 121/139/3 147/140/3 163/141/3
f 178/142/2 138/143/2 135/144/2
f 80/145/3 154/146/3 146/147/3
f 4/148/2 52/149/2 127/150/2
f 186/151/2 196/152/2 193/153/2
f 77/154/3 24/155/3 21/156/3
f 2/157/1 87/158/1 9/159/1
f 88/160/1 13/161/1 10/162/1
f 160/163/2 131/164/2 134/165/2
f 161/166/2 165/167/2 174/168/2
f 104/169/2 171/170/2 175/171/2
f 118/172/2 33/173/2 172/174/2
f 149/175/2 179/176/2 183/177/2
f 155/178/2 139/179/2 180/180/2
f 144/181/2 137/182/2 140/183/2
f 145/184/2 114/185/2 184/186/2
f 166/187/2 187/188/2 191/189/2
f 150/190/2 197/191/2 188/192/2
f 111/193/2 194/194/2 198/195/2
f 106/196/2 41/197/2 195/198/2
