# Blender v2.90.1 OBJ File: 'no_connection_split.blend'
# www.blender.org
mtllib no_connection.mtl
o Cube.001_Cube
v -5.000000 -0.264129 5.000000
v -3.242093 0.264129 3.242093
v -5.000000 -0.264129 -5.000000
v -3.242093 0.264129 -3.242093
v 5.000000 -0.264129 5.000000
v 3.242093 0.264129 3.242093
v 5.000000 -0.264129 -5.000000
v 3.242093 0.264129 -3.242093
v -5.000000 0.264129 5.000000
v -5.000000 0.264129 -5.000000
v 5.000000 0.264129 -5.000000
v 5.000000 0.264129 5.000000
v -0.475106 0.029848 0.475106
v -0.475106 0.029848 -0.475106
v 0.475107 0.029848 -0.475106
v 0.475107 0.029848 0.475106
v -3.242093 0.029848 3.242093
v -3.242093 0.029848 -3.242093
v 3.242093 0.029848 -3.242093
v 3.242093 0.029848 3.242093
v -5.000000 -0.264129 -5.000000
v -5.000000 -0.264129 -5.000000
v -5.000000 -0.264129 5.000000
v -5.000000 -0.264129 5.000000
v -5.000000 0.264129 5.000000
v -5.000000 0.264129 5.000000
v -5.000000 0.264129 5.000000
v -5.000000 0.264129 5.000000
v -5.000000 0.264129 5.000000
v -5.000000 0.264129 -5.000000
v -5.000000 0.264129 -5.000000
v -5.000000 0.264129 -5.000000
v -5.000000 0.264129 -5.000000
v -5.000000 0.264129 -5.000000
v 5.000000 -0.264129 -5.000000
v 5.000000 -0.264129 -5.000000
v 5.000000 0.264129 -5.000000
v 5.000000 0.264129 -5.000000
v 5.000000 0.264129 -5.000000
v 5.000000 0.264129 -5.000000
v 5.000000 0.264129 -5.000000
v 5.000000 -0.264129 5.000000
v 5.000000 -0.264129 5.000000
v 5.000000 0.264129 5.000000
v 5.000000 0.264129 5.000000
v 5.000000 0.264129 5.000000
v 5.000000 0.264129 5.000000
v 5.000000 0.264129 5.000000
v -3.242093 0.264129 3.242093
v -3.242093 0.264129 3.242093
v -3.242093 0.264129 3.242093
v -3.242093 0.264129 3.242093
v -3.242093 0.264129 3.242093
v -3.242093 0.264129 -3.242093
v -3.242093 0.264129 -3.242093
v -3.242093 0.264129 -3.242093
v -3.242093 0.264129 -3.242093
v -3.242093 0.264129 -3.242093
v 3.242093 0.264129 -3.242093
v 3.242093 0.264129 -3.242093
v 3.242093 0.264129 -3.242093
v 3.242093 0.264129 -3.242093
v 3.242093 0.264129 -3.242093
v 3.242093 0.264129 3.242093
v 3.242093 0.264129 3.242093
v 3.242093 0.264129 3.242093
v 3.242093 0.264129 3.242093
v 3.242093 0.264129 3.242093
v -3.242093 0.029848 3.242093
v -3.242093 0.029848 3.242093
v -3.242093 0.029848 3.242093
v -3.242093 0.029848 3.242093
v -3.242093 0.029848 -3.242093
v -3.242093 0.029848 -3.242093
v -3.242093 0.029848 -3.242093
v -3.242093 0.029848 -3.242093
v -3.242093 0.029848 -3.242093
v -3.242093 0.029848 -3.242093
v 3.242093 0.029848 -3.242093
v 3.242093 0.029848 -3.242093
v 3.242093 0.029848 -3.242093
v 3.242093 0.029848 -3.242093
v 3.242093 0.029848 3.242093
v 3.242093 0.029848 3.242093
v 3.242093 0.029848 3.242093
v 3.242093 0.029848 3.242093
v 3.242093 0.029848 3.242093
v 3.242093 0.029848 3.242093
v -0.475106 0.029848 0.475106
v -0.475106 0.029848 0.475106
v -0.475106 0.029848 0.475106
v -0.475106 0.029848 0.475106
v -0.475106 0.029848 -0.475106
v -0.475106 0.029848 -0.475106
v -0.475106 0.029848 -0.475106
v 0.475107 0.029848 -0.475106
v 0.475107 0.029848 -0.475106
v 0.475107 0.029848 -0.475106
v 0.475107 0.029848 -0.475106
v 0.475107 0.029848 0.475106
v 0.475107 0.029848 0.475106
v 0.475107 0.029848 0.475106
vt 0.592000 0.941406
vt 0.592000 0.941406
vt 0.592000 0.941406
vt 0.592000 0.941406
vt 0.592000 0.941406
vt 0.592000 0.941406
vt 0.592000 0.941406
vt 0.592000 0.941406
vt 0.592000 0.941406
vt 0.592000 0.941406
vt 0.592000 0.941406
vt 0.592000 0.941406
vt 0.592000 0.941406
vt 0.592000 0.941406
vt 0.592000 0.941406
vt 0.592000 0.941406
vt 0.592000 0.941406
vt 0.592000 0.941406
vt 0.592000 0.941406
vt 0.592000 0.941406
vt 0.592000 0.941406
vt 0.592000 0.941406
vt 0.592000 0.941406
vt 0.592000 0.941406
vt 0.592000 0.941406
vt 0.592000 0.941406
vt 0.592000 0.941406
vt 0.070313 0.951172
vt 0.070313 0.951172
vt 0.070313 0.951172
vt 0.592000 0.941406
vt 0.592000 0.941406
vt 0.592000 0.941406
vt 0.592000 0.941406
vt 0.592000 0.941406
vt 0.592000 0.941406
vt 0.592000 0.941406
vt 0.592000 0.941406
vt 0.592000 0.941406
vt 0.681641 0.941406
vt 0.681641 0.941406
vt 0.681641 0.941406
vt 0.681641 0.941406
vt 0.681641 0.941406
vt 0.681641 0.941406
vt 0.681641 0.941406
vt 0.681641 0.941406
vt 0.681641 0.941406
vt 0.658000 0.936000
vt 0.658000 0.936000
vt 0.658000 0.936000
vt 0.592000 0.941406
vt 0.592000 0.941406
vt 0.592000 0.941406
vt 0.592000 0.941406
vt 0.592000 0.941406
vt 0.592000 0.941406
vt 0.592000 0.941406
vt 0.592000 0.941406
vt 0.592000 0.941406
vt 0.592000 0.941406
vt 0.592000 0.941406
vt 0.592000 0.941406
vt 0.592000 0.941406
vt 0.592000 0.941406
vt 0.592000 0.941406
vt 0.592000 0.941406
vt 0.592000 0.941406
vt 0.592000 0.941406
vt 0.592000 0.941406
vt 0.592000 0.941406
vt 0.592000 0.941406
vt 0.592000 0.941406
vt 0.592000 0.941406
vt 0.592000 0.941406
vt 0.592000 0.941406
vt 0.592000 0.941406
vt 0.592000 0.941406
vt 0.070313 0.951172
vt 0.070313 0.951172
vt 0.070313 0.951172
vt 0.592000 0.941406
vt 0.592000 0.941406
vt 0.592000 0.941406
vt 0.592000 0.941406
vt 0.592000 0.941406
vt 0.592000 0.941406
vt 0.592000 0.941406
vt 0.592000 0.941406
vt 0.592000 0.941406
vt 0.681641 0.941406
vt 0.681641 0.941406
vt 0.681641 0.941406
vt 0.681641 0.941406
vt 0.681641 0.941406
vt 0.681641 0.941406
vt 0.681641 0.941406
vt 0.681641 0.941406
vt 0.681641 0.941406
vt 0.658000 0.936000
vt 0.658000 0.936000
vt 0.658000 0.936000
vn -1.0000 0.0000 0.0000
vn 0.0000 0.0000 -1.0000
vn 1.0000 0.0000 0.0000
vn 0.0000 0.0000 1.0000
vn 0.0000 1.0000 0.0000
usemtl Material
s off
f 25/1/1 21/2/1 23/3/1
f 34/4/2 35/5/2 3/6/2
f 41/7/3 42/8/3 7/9/3
f 48/10/4 24/11/4 5/12/4
f 65/13/2 71/14/2 50/15/2
f 54/16/5 28/17/5 49/18/5
f 59/19/5 10/20/5 55/21/5
f 64/22/5 11/23/5 60/24/5
f 53/25/5 12/26/5 68/27/5
f 94/28/5 100/29/5 96/30/5
f 4/31/4 81/32/4 62/33/4
f 8/34/1 87/35/1 6/36/1
f 2/37/3 77/38/3 58/39/3
f 90/40/5 78/41/5 72/42/5
f 99/43/5 18/44/5 14/45/5
f 15/46/5 88/47/5 19/48/5
f 13/49/5 20/50/5 16/51/5
f 26/52/1 30/53/1 22/54/1
f 31/55/2 37/56/2 36/57/2
f 38/58/3 44/59/3 43/60/3
f 45/61/4 27/62/4 1/63/4
f 67/64/2 84/65/2 70/66/2
f 56/67/5 32/68/5 29/69/5
f 61/70/5 39/71/5 33/72/5
f 66/73/5 46/74/5 40/75/5
f 51/76/5 9/77/5 47/78/5
f 93/79/5 89/80/5 101/81/5
f 57/82/4 74/83/4 79/84/4
f 63/85/1 80/86/1 83/87/1
f 52/88/3 69/89/3 73/90/3
f 91/91/5 95/92/5 75/93/5
f 97/94/5 82/95/5 76/96/5
f 98/97/5 102/98/5 85/99/5
f 92/100/5 17/101/5 86/102/5
